<?xml version="1.0" encoding="UTF-8" standalone="no"?>
<!DOCTYPE svg PUBLIC "-//W3C//DTD SVG 1.1//EN"
 "http://www.w3.org/Graphics/SVG/1.1/DTD/svg11.dtd">
<!-- Generated by graphviz version 16.0.0 (20260814.1018)
 -->
<!-- Title: data Pages: 1 -->
<svg width="781pt" height="835pt"
 viewBox="0.00 0.00 781.00 835.00" xmlns="http://www.w3.org/2000/svg" xmlns:xlink="http://www.w3.org/1999/xlink" role="img" aria-labelledby="diagram-title"><title id="diagram-title">Core Enpassant data relationships</title>
<g id="graph0" class="graph" transform="scale(1 1) rotate(0) translate(25.2 810.2)">
<title>data</title>
<polygon fill="#f5f2e9" stroke="none" points="-25.2,25.2 -25.2,-810.2 755.62,-810.2 755.62,25.2 -25.2,25.2"/>
<text xml:space="preserve" text-anchor="middle" x="171.75" y="-770.2" font-family="Helvetica,sans-Serif" font-size="12.00" fill="#183923">ENPASSANT &#160;/ &#160;CORE DATA RELATIONSHIPS</text>
<text xml:space="preserve" text-anchor="middle" x="171.75" y="-755.8" font-family="Helvetica,sans-Serif" font-size="12.00" fill="#183923">Ownership, played encounters and derived views stay distinct</text>
<!-- user -->
<g id="node1" class="node">
<title>user</title>
<path fill="#183923" stroke="#183923" stroke-width="1.1" d="M406.12,-748.2C406.12,-748.2 269.26,-748.2 269.26,-748.2 263.26,-748.2 257.26,-742.2 257.26,-736.2 257.26,-736.2 257.26,-704.6 257.26,-704.6 257.26,-698.6 263.26,-692.6 269.26,-692.6 269.26,-692.6 406.12,-692.6 406.12,-692.6 412.12,-692.6 418.12,-698.6 418.12,-704.6 418.12,-704.6 418.12,-736.2 418.12,-736.2 418.12,-742.2 412.12,-748.2 406.12,-748.2"/>
<text xml:space="preserve" text-anchor="start" x="311.69" y="-727.6" font-family="Helvetica,sans-Serif" font-weight="bold" font-size="12.00" fill="#fffdf7">App user</text>
<text xml:space="preserve" text-anchor="start" x="283.57" y="-716.5" font-family="Helvetica,sans-Serif" font-size="11.00" fill="#fffdf7">Stable internal identity</text>
<text xml:space="preserve" text-anchor="start" x="271.66" y="-705.5" font-family="Helvetica,sans-Serif" font-size="11.00" fill="#fffdf7">Owner of private resources</text>
</g>
<!-- identity -->
<g id="node2" class="node">
<title>identity</title>
<path fill="#fffdf7" stroke="#789581" stroke-width="1.1" d="M204.61,-629.1C204.61,-629.1 48.77,-629.1 48.77,-629.1 42.77,-629.1 36.77,-623.1 36.77,-617.1 36.77,-617.1 36.77,-585.5 36.77,-585.5 36.77,-579.5 42.77,-573.5 48.77,-573.5 48.77,-573.5 204.61,-573.5 204.61,-573.5 210.61,-573.5 216.61,-579.5 216.61,-585.5 216.61,-585.5 216.61,-617.1 216.61,-617.1 216.61,-623.1 210.61,-629.1 204.61,-629.1"/>
<text xml:space="preserve" text-anchor="start" x="54.68" y="-608.5" font-family="Helvetica,sans-Serif" font-weight="bold" font-size="12.00" fill="#183923">Identity / session / profile</text>
<text xml:space="preserve" text-anchor="start" x="51.17" y="-597.4" font-family="Helvetica,sans-Serif" font-size="11.00" fill="#183923">Sign&#45;in and public presentation</text>
<text xml:space="preserve" text-anchor="start" x="55.15" y="-586.4" font-family="Helvetica,sans-Serif" font-size="11.00" fill="#183923">Separate from chess handles</text>
</g>
<!-- user&#45;&gt;identity -->
<g id="edge1" class="edge">
<title>user&#45;&gt;identity</title>
<path fill="none" stroke="#789581" stroke-width="1.2" d="M288.49,-692.09C256.77,-674.49 215.45,-651.56 182.5,-633.27"/>
<polygon fill="#789581" stroke="#789581" stroke-width="1.2" points="183.98,-631.49 177.2,-630.33 181.77,-635.47 183.98,-631.49"/>
<text xml:space="preserve" text-anchor="middle" x="252.88" y="-660.6" font-family="Helvetica,sans-Serif" font-size="10.00" fill="#375c43">has</text>
</g>
<!-- connection -->
<g id="node4" class="node">
<title>connection</title>
<path fill="#fffdf7" stroke="#789581" stroke-width="1.1" d="M718.42,-634.6C718.42,-634.6 550.96,-634.6 550.96,-634.6 544.96,-634.6 538.96,-628.6 538.96,-622.6 538.96,-622.6 538.96,-580 538.96,-580 538.96,-574 544.96,-568 550.96,-568 550.96,-568 718.42,-568 718.42,-568 724.42,-568 730.42,-574 730.42,-580 730.42,-580 730.42,-622.6 730.42,-622.6 730.42,-628.6 724.42,-634.6 718.42,-634.6"/>
<text xml:space="preserve" text-anchor="start" x="579.01" y="-614" font-family="Helvetica,sans-Serif" font-weight="bold" font-size="12.00" fill="#183923">Verified connection</text>
<text xml:space="preserve" text-anchor="start" x="597.39" y="-602.9" font-family="Helvetica,sans-Serif" font-size="11.00" fill="#183923">Proof of control</text>
<text xml:space="preserve" text-anchor="start" x="553.36" y="-591.9" font-family="Helvetica,sans-Serif" font-size="11.00" fill="#183923">Credential retention is conditional</text>
<text xml:space="preserve" text-anchor="start" x="572.94" y="-580.9" font-family="Helvetica,sans-Serif" font-size="11.00" fill="#183923">At most one active owner</text>
</g>
<!-- user&#45;&gt;connection -->
<g id="edge3" class="edge">
<title>user&#45;&gt;connection</title>
<path fill="none" stroke="#789581" stroke-width="1.2" d="M380.95,-692.11C407.2,-675.56 435.68,-657.6 435.68,-657.6 435.68,-657.6 482.63,-644.55 530.93,-631.13"/>
<polygon fill="#789581" stroke="#789581" stroke-width="1.2" points="531.28,-633.4 536.93,-629.46 530.06,-629.01 531.28,-633.4"/>
<text xml:space="preserve" text-anchor="middle" x="453.18" y="-660.6" font-family="Helvetica,sans-Serif" font-size="10.00" fill="#375c43">controls</text>
</g>
<!-- source -->
<g id="node5" class="node">
<title>source</title>
<path fill="#fffdf7" stroke="#789581" stroke-width="1.1" d="M416.36,-629.1C416.36,-629.1 259.02,-629.1 259.02,-629.1 253.02,-629.1 247.02,-623.1 247.02,-617.1 247.02,-617.1 247.02,-585.5 247.02,-585.5 247.02,-579.5 253.02,-573.5 259.02,-573.5 259.02,-573.5 416.36,-573.5 416.36,-573.5 422.36,-573.5 428.36,-579.5 428.36,-585.5 428.36,-585.5 428.36,-617.1 428.36,-617.1 428.36,-623.1 422.36,-629.1 416.36,-629.1"/>
<text xml:space="preserve" text-anchor="start" x="296.01" y="-608.5" font-family="Helvetica,sans-Serif" font-weight="bold" font-size="12.00" fill="#183923">Library source</text>
<text xml:space="preserve" text-anchor="start" x="261.42" y="-597.4" font-family="Helvetica,sans-Serif" font-size="11.00" fill="#183923">Player perspective + sync state</text>
<text xml:space="preserve" text-anchor="start" x="271.34" y="-586.4" font-family="Helvetica,sans-Serif" font-size="11.00" fill="#183923">Public, verified or uploaded</text>
</g>
<!-- user&#45;&gt;source -->
<g id="edge2" class="edge">
<title>user&#45;&gt;source</title>
<path fill="none" stroke="#789581" stroke-width="1.2" d="M337.69,-692.24C337.69,-675.98 337.69,-655.14 337.69,-637.62"/>
<polygon fill="#789581" stroke="#789581" stroke-width="1.2" points="339.97,-637.63 337.69,-631.13 335.42,-637.63 339.97,-637.63"/>
<text xml:space="preserve" text-anchor="middle" x="349.36" y="-660.6" font-family="Helvetica,sans-Serif" font-size="10.00" fill="#375c43">owns</text>
</g>
<!-- account -->
<g id="node3" class="node">
<title>account</title>
<path fill="#fffdf7" stroke="#789581" stroke-width="1.1" d="M625.29,-748.2C625.29,-748.2 466.09,-748.2 466.09,-748.2 460.09,-748.2 454.09,-742.2 454.09,-736.2 454.09,-736.2 454.09,-704.6 454.09,-704.6 454.09,-698.6 460.09,-692.6 466.09,-692.6 466.09,-692.6 625.29,-692.6 625.29,-692.6 631.29,-692.6 637.29,-698.6 637.29,-704.6 637.29,-704.6 637.29,-736.2 637.29,-736.2 637.29,-742.2 631.29,-748.2 625.29,-748.2"/>
<text xml:space="preserve" text-anchor="start" x="497.34" y="-727.6" font-family="Helvetica,sans-Serif" font-weight="bold" font-size="12.00" fill="#183923">External account</text>
<text xml:space="preserve" text-anchor="start" x="468.49" y="-716.5" font-family="Helvetica,sans-Serif" font-size="11.00" fill="#183923">Provider ID + observed handles</text>
<text xml:space="preserve" text-anchor="start" x="492.81" y="-705.5" font-family="Helvetica,sans-Serif" font-size="11.00" fill="#183923">Many public watchers</text>
</g>
<!-- account&#45;&gt;connection -->
<g id="edge5" class="edge">
<title>account&#45;&gt;connection</title>
<path fill="none" stroke="#789581" stroke-width="1.2" stroke-dasharray="5,2" d="M566.47,-692.17C575.34,-680.54 583.69,-669.6 583.69,-669.6 583.69,-669.6 593.91,-656.11 605.21,-641.21"/>
<polygon fill="#789581" stroke="#789581" stroke-width="1.2" points="606.88,-642.77 608.99,-636.21 603.25,-640.02 606.88,-642.77"/>
<text xml:space="preserve" text-anchor="middle" x="626.71" y="-660.6" font-family="Helvetica,sans-Serif" font-size="10.00" fill="#375c43">verified through</text>
</g>
<!-- account&#45;&gt;source -->
<g id="edge4" class="edge">
<title>account&#45;&gt;source</title>
<path fill="none" stroke="#789581" stroke-width="1.2" stroke-dasharray="5,2" d="M515.67,-692.11C497.45,-675.56 477.69,-657.6 477.69,-657.6 477.69,-657.6 446.96,-645.46 414.3,-632.56"/>
<polygon fill="#789581" stroke="#789581" stroke-width="1.2" points="415.44,-630.57 408.56,-630.29 413.77,-634.8 415.44,-630.57"/>
<text xml:space="preserve" text-anchor="middle" x="515.99" y="-660.6" font-family="Helvetica,sans-Serif" font-size="10.00" fill="#375c43">watched by</text>
</g>
<!-- connection&#45;&gt;source -->
<g id="edge6" class="edge">
<title>connection&#45;&gt;source</title>
<path fill="none" stroke="#789581" stroke-width="1.2" stroke-dasharray="5,2" d="M538.59,-601.3C506.1,-601.3 469.79,-601.3 437.06,-601.3"/>
<polygon fill="#789581" stroke="#789581" stroke-width="1.2" points="437.13,-599.03 430.63,-601.3 437.13,-603.58 437.13,-599.03"/>
<text xml:space="preserve" text-anchor="middle" x="483.66" y="-607.3" font-family="Helvetica,sans-Serif" font-size="10.00" fill="#375c43">optional credential</text>
</g>
<!-- encounter -->
<g id="node6" class="node">
<title>encounter</title>
<path fill="#dcebd7" stroke="#789581" stroke-width="1.1" d="M420.19,-510C420.19,-510 255.19,-510 255.19,-510 249.19,-510 243.19,-504 243.19,-498 243.19,-498 243.19,-466.4 243.19,-466.4 243.19,-460.4 249.19,-454.4 255.19,-454.4 255.19,-454.4 420.19,-454.4 420.19,-454.4 426.19,-454.4 432.19,-460.4 432.19,-466.4 432.19,-466.4 432.19,-498 432.19,-498 432.19,-504 426.19,-510 420.19,-510"/>
<text xml:space="preserve" text-anchor="start" x="290.34" y="-489.4" font-family="Helvetica,sans-Serif" font-weight="bold" font-size="12.00" fill="#183923">Game encounter</text>
<text xml:space="preserve" text-anchor="start" x="278.07" y="-478.3" font-family="Helvetica,sans-Serif" font-size="11.00" fill="#183923">One actual played game</text>
<text xml:space="preserve" text-anchor="start" x="257.59" y="-467.3" font-family="Helvetica,sans-Serif" font-size="11.00" fill="#183923">Deduplicate by provider game ID</text>
</g>
<!-- source&#45;&gt;encounter -->
<g id="edge7" class="edge">
<title>source&#45;&gt;encounter</title>
<path fill="none" stroke="#789581" stroke-width="1.2" d="M337.69,-573.14C337.69,-556.88 337.69,-536.04 337.69,-518.52"/>
<polygon fill="#789581" stroke="#789581" stroke-width="1.2" points="339.97,-518.53 337.69,-512.03 335.42,-518.53 339.97,-518.53"/>
<text xml:space="preserve" text-anchor="middle" x="384.51" y="-536" font-family="Helvetica,sans-Serif" font-size="10.00" fill="#375c43">imports + source refs</text>
</g>
<!-- revision -->
<g id="node7" class="node">
<title>revision</title>
<path fill="#dcebd7" stroke="#789581" stroke-width="1.1" d="M422.48,-396.4C422.48,-396.4 252.9,-396.4 252.9,-396.4 246.9,-396.4 240.9,-390.4 240.9,-384.4 240.9,-384.4 240.9,-352.8 240.9,-352.8 240.9,-346.8 246.9,-340.8 252.9,-340.8 252.9,-340.8 422.48,-340.8 422.48,-340.8 428.48,-340.8 434.48,-346.8 434.48,-352.8 434.48,-352.8 434.48,-384.4 434.48,-384.4 434.48,-390.4 428.48,-396.4 422.48,-396.4"/>
<text xml:space="preserve" text-anchor="start" x="296.34" y="-375.8" font-family="Helvetica,sans-Serif" font-weight="bold" font-size="12.00" fill="#183923">Game revision</text>
<text xml:space="preserve" text-anchor="start" x="255.3" y="-364.7" font-family="Helvetica,sans-Serif" font-size="11.00" fill="#183923">Immutable metadata + content ref</text>
<text xml:space="preserve" text-anchor="start" x="256.07" y="-353.7" font-family="Helvetica,sans-Serif" font-size="11.00" fill="#183923">Corrections create a new revision</text>
</g>
<!-- encounter&#45;&gt;revision -->
<g id="edge8" class="edge">
<title>encounter&#45;&gt;revision</title>
<path fill="none" stroke="#789581" stroke-width="1.2" d="M337.69,-453.9C337.69,-439.06 337.69,-420.55 337.69,-404.66"/>
<polygon fill="#789581" stroke="#789581" stroke-width="1.2" points="339.97,-404.93 337.69,-398.43 335.42,-404.93 339.97,-404.93"/>
<text xml:space="preserve" text-anchor="middle" x="366.87" y="-422.4" font-family="Helvetica,sans-Serif" font-size="10.00" fill="#375c43">has revisions</text>
</g>
<!-- content -->
<g id="node8" class="node">
<title>content</title>
<path fill="#fffdf7" stroke="#789581" stroke-width="1.1" d="M209.38,-282.8C209.38,-282.8 12,-282.8 12,-282.8 6,-282.8 0,-276.8 0,-270.8 0,-270.8 0,-239.2 0,-239.2 0,-233.2 6,-227.2 12,-227.2 12,-227.2 209.38,-227.2 209.38,-227.2 215.38,-227.2 221.38,-233.2 221.38,-239.2 221.38,-239.2 221.38,-270.8 221.38,-270.8 221.38,-276.8 215.38,-282.8 209.38,-282.8"/>
<text xml:space="preserve" text-anchor="start" x="70.68" y="-262.2" font-family="Helvetica,sans-Serif" font-weight="bold" font-size="12.00" fill="#183923">Game content</text>
<text xml:space="preserve" text-anchor="start" x="34.41" y="-251.1" font-family="Helvetica,sans-Serif" font-size="11.00" fill="#183923">Initial position + ordered moves</text>
<text xml:space="preserve" text-anchor="start" x="14.4" y="-240.1" font-family="Helvetica,sans-Serif" font-size="11.00" fill="#183923">Same moves can occur in many games</text>
</g>
<!-- revision&#45;&gt;content -->
<g id="edge9" class="edge">
<title>revision&#45;&gt;content</title>
<path fill="none" stroke="#789581" stroke-width="1.2" d="M282.16,-340.3C249.2,-324.09 207.32,-303.5 173.2,-286.73"/>
<polygon fill="#789581" stroke="#789581" stroke-width="1.2" points="174.51,-284.84 167.67,-284.01 172.5,-288.92 174.51,-284.84"/>
<text xml:space="preserve" text-anchor="middle" x="254.62" y="-308.8" font-family="Helvetica,sans-Serif" font-size="10.00" fill="#375c43">references</text>
</g>
<!-- analysis -->
<g id="node9" class="node">
<title>analysis</title>
<path fill="#fffdf7" stroke="#789581" stroke-width="1.1" d="M411.78,-282.8C411.78,-282.8 263.6,-282.8 263.6,-282.8 257.6,-282.8 251.6,-276.8 251.6,-270.8 251.6,-270.8 251.6,-239.2 251.6,-239.2 251.6,-233.2 257.6,-227.2 263.6,-227.2 263.6,-227.2 411.78,-227.2 411.78,-227.2 417.78,-227.2 423.78,-233.2 423.78,-239.2 423.78,-239.2 423.78,-270.8 423.78,-270.8 423.78,-276.8 417.78,-282.8 411.78,-282.8"/>
<text xml:space="preserve" text-anchor="start" x="281.67" y="-262.2" font-family="Helvetica,sans-Serif" font-weight="bold" font-size="12.00" fill="#183923">Analysis root result</text>
<text xml:space="preserve" text-anchor="start" x="266" y="-251.1" font-family="Helvetica,sans-Serif" font-size="11.00" fill="#183923">Full history + engine manifest</text>
<text xml:space="preserve" text-anchor="start" x="275.94" y="-240.1" font-family="Helvetica,sans-Serif" font-size="11.00" fill="#183923">Immutable search artifact</text>
</g>
<!-- revision&#45;&gt;analysis -->
<g id="edge10" class="edge">
<title>revision&#45;&gt;analysis</title>
<path fill="none" stroke="#789581" stroke-width="1.2" d="M337.69,-340.3C337.69,-325.46 337.69,-306.95 337.69,-291.06"/>
<polygon fill="#789581" stroke="#789581" stroke-width="1.2" points="339.97,-291.33 337.69,-284.83 335.42,-291.33 339.97,-291.33"/>
<text xml:space="preserve" text-anchor="middle" x="384.94" y="-308.8" font-family="Helvetica,sans-Serif" font-size="10.00" fill="#375c43">selected occurrences</text>
</g>
<!-- atlas -->
<g id="node10" class="node">
<title>atlas</title>
<path fill="#fffdf7" stroke="#789581" stroke-width="1.1" d="M635.79,-282.8C635.79,-282.8 465.59,-282.8 465.59,-282.8 459.59,-282.8 453.59,-276.8 453.59,-270.8 453.59,-270.8 453.59,-239.2 453.59,-239.2 453.59,-233.2 459.59,-227.2 465.59,-227.2 465.59,-227.2 635.79,-227.2 635.79,-227.2 641.79,-227.2 647.79,-233.2 647.79,-239.2 647.79,-239.2 647.79,-270.8 647.79,-270.8 647.79,-276.8 641.79,-282.8 635.79,-282.8"/>
<text xml:space="preserve" text-anchor="start" x="507.68" y="-262.2" font-family="Helvetica,sans-Serif" font-weight="bold" font-size="12.00" fill="#183923">Atlas snapshot</text>
<text xml:space="preserve" text-anchor="start" x="470.58" y="-251.1" font-family="Helvetica,sans-Serif" font-size="11.00" fill="#183923">Selected encounter contributions</text>
<text xml:space="preserve" text-anchor="start" x="467.99" y="-240.1" font-family="Helvetica,sans-Serif" font-size="11.00" fill="#183923">Played prefixes + outcome counts</text>
</g>
<!-- revision&#45;&gt;atlas -->
<g id="edge11" class="edge">
<title>revision&#45;&gt;atlas</title>
<path fill="none" stroke="#789581" stroke-width="1.2" d="M392.92,-340.37C416.5,-328.74 438.69,-317.8 438.69,-317.8 438.69,-317.8 466.35,-302.54 494.18,-287.18"/>
<polygon fill="#789581" stroke="#789581" stroke-width="1.2" points="495.06,-289.3 499.65,-284.16 492.86,-285.31 495.06,-289.3"/>
<text xml:space="preserve" text-anchor="middle" x="526.54" y="-308.8" font-family="Helvetica,sans-Serif" font-size="10.00" fill="#375c43">contributes once / perspective</text>
</g>
<!-- study -->
<g id="node11" class="node">
<title>study</title>
<path fill="#fffdf7" stroke="#789581" stroke-width="1.1" d="M522.07,-169.2C522.07,-169.2 365.31,-169.2 365.31,-169.2 359.31,-169.2 353.31,-163.2 353.31,-157.2 353.31,-157.2 353.31,-125.6 353.31,-125.6 353.31,-119.6 359.31,-113.6 365.31,-113.6 365.31,-113.6 522.07,-113.6 522.07,-113.6 528.07,-113.6 534.07,-119.6 534.07,-125.6 534.07,-125.6 534.07,-157.2 534.07,-157.2 534.07,-163.2 528.07,-169.2 522.07,-169.2"/>
<text xml:space="preserve" text-anchor="start" x="402.35" y="-148.6" font-family="Helvetica,sans-Serif" font-weight="bold" font-size="12.00" fill="#183923">Study revision</text>
<text xml:space="preserve" text-anchor="start" x="367.71" y="-137.5" font-family="Helvetica,sans-Serif" font-size="11.00" fill="#183923">Pinned inputs + renderer policy</text>
<text xml:space="preserve" text-anchor="start" x="368.49" y="-126.5" font-family="Helvetica,sans-Serif" font-size="11.00" fill="#183923">Notes / selections / saved view</text>
</g>
<!-- analysis&#45;&gt;study -->
<g id="edge12" class="edge">
<title>analysis&#45;&gt;study</title>
<path fill="none" stroke="#789581" stroke-width="1.2" d="M363.62,-226.7C378.36,-211.18 396.92,-191.65 412.45,-175.29"/>
<polygon fill="#789581" stroke="#789581" stroke-width="1.2" points="413.95,-177.02 416.78,-170.74 410.65,-173.88 413.95,-177.02"/>
<text xml:space="preserve" text-anchor="middle" x="425.55" y="-195.2" font-family="Helvetica,sans-Serif" font-size="10.00" fill="#375c43">pins result IDs</text>
</g>
<!-- atlas&#45;&gt;study -->
<g id="edge13" class="edge">
<title>atlas&#45;&gt;study</title>
<path fill="none" stroke="#789581" stroke-width="1.2" d="M524.52,-226.7C509.64,-211.18 490.91,-191.65 475.22,-175.29"/>
<polygon fill="#789581" stroke="#789581" stroke-width="1.2" points="476.99,-173.85 470.85,-170.73 473.71,-177 476.99,-173.85"/>
<text xml:space="preserve" text-anchor="middle" x="524.86" y="-195.2" font-family="Helvetica,sans-Serif" font-size="10.00" fill="#375c43">pins cohort</text>
</g>
<!-- share -->
<g id="node12" class="node">
<title>share</title>
<path fill="#f0e3d4" stroke="#a06752" stroke-width="1.1" d="M515.95,-55.6C515.95,-55.6 371.43,-55.6 371.43,-55.6 365.43,-55.6 359.43,-49.6 359.43,-43.6 359.43,-43.6 359.43,-12 359.43,-12 359.43,-6 365.43,0 371.43,0 371.43,0 515.95,0 515.95,0 521.95,0 527.95,-6 527.95,-12 527.95,-12 527.95,-43.6 527.95,-43.6 527.95,-49.6 521.95,-55.6 515.95,-55.6"/>
<text xml:space="preserve" text-anchor="start" x="427.01" y="-35" font-family="Helvetica,sans-Serif" font-weight="bold" font-size="12.00" fill="#183923">Share</text>
<text xml:space="preserve" text-anchor="start" x="381.01" y="-23.9" font-family="Helvetica,sans-Serif" font-size="11.00" fill="#183923">Exact published snapshot</text>
<text xml:space="preserve" text-anchor="start" x="373.83" y="-12.9" font-family="Helvetica,sans-Serif" font-size="11.00" fill="#183923">Revocable token + redaction</text>
</g>
<!-- study&#45;&gt;share -->
<g id="edge14" class="edge">
<title>study&#45;&gt;share</title>
<path fill="none" stroke="#789581" stroke-width="1.2" d="M443.69,-113.1C443.69,-98.26 443.69,-79.75 443.69,-63.86"/>
<polygon fill="#789581" stroke="#789581" stroke-width="1.2" points="445.97,-64.13 443.69,-57.63 441.42,-64.13 445.97,-64.13"/>
<text xml:space="preserve" text-anchor="middle" x="484.27" y="-81.6" font-family="Helvetica,sans-Serif" font-size="10.00" fill="#375c43">explicit publication</text>
</g>
</g>
</svg>
