<svg xmlns="http://www.w3.org/2000/svg" width="1280" height="360" viewBox="0 0 1280 360" role="img" aria-labelledby="title desc">
<title id="title">enpassant. Every move has a multiverse.</title>
<desc id="desc">Forest-green serif wordmark on warm ivory, with a sage panel showing a detail from the original chess evolution diagram.</desc>
<rect width="1280" height="360" fill="#f5f2e9"/>
<rect x="890" width="390" height="360" fill="#9dcd9d"/>
<path d="M58 48H94" stroke="#c14c38" stroke-width="3"/>
<text x="109" y="53" fill="#183923" font-family="Arial,sans-serif" font-size="12" letter-spacing="2.7">THE SHAPE OF A CHESS GAME</text>
<text x="56" y="183" fill="#183923" font-family="Georgia,serif" font-size="116" font-weight="700" letter-spacing="-5">enpassant<tspan fill="#ed001b">.</tspan></text>
<text x="62" y="246" fill="#36533e" font-family="Georgia,serif" font-size="30">Every move has a multiverse.</text>
<text x="62" y="318" fill="#506653" font-family="Arial,sans-serif" font-size="12" letter-spacing="2">IMPORT A GAME. FOLLOW ITS POSSIBILITIES.</text>
<svg x="934" y="36" width="300" height="285" viewBox="284 8 72 94">
<path d="M285.0054 20.8852 C285.9818 20.3871 287.5539 19.5836 288.7171 18.9898" fill="none" stroke="#183923" stroke-width="0.6" stroke-dasharray="0.0665 0.3325"/><path d="M285.0054 53.7406 C285.9818 53.2419 287.5539 52.4388 288.7171 51.8445" fill="none" stroke="#183923" stroke-width="0.3325"/><path d="M290.9185 50.1267 C291.3224 49.4174 291.8557 48.4143 292.2169 47.4845 C293.7014 43.661 292.4243 42.0421 294.6112 38.5724 C294.7336 38.3783 294.8872 38.1946 295.0535 38.0257" fill="none" stroke="#183923" stroke-width="0.6" stroke-dasharray="0.0665 0.3325"/><path d="M297.5089 36.5147 C298.4853 36.0166 300.0576 35.2131 301.2208 34.6192" fill="none" stroke="#183923" stroke-width="0.6" stroke-dasharray="0.0665 0.3325"/><path d="M303.7646 33.2645 C304.1032 33.0085 304.4657 32.6838 304.7204 32.3207 C306.5553 29.7023 305.3077 28.1746 307.1147 25.5369 C307.2423 25.3507 307.3967 25.1731 307.5615 25.0089" fill="none" stroke="#183923" stroke-width="0.6" stroke-dasharray="0.0665 0.3325"/><path d="M285.9718 61.4511 C286.5065 61.4511 287.099 61.4511 287.667 61.4511" fill="none" stroke="#183923" stroke-width="0.6"/><path d="M285.6784 62.5131 C286.6256 63.1512 287.8228 63.9579 288.7505 64.5831" fill="none" stroke="#183923" stroke-width="0.6"/><path d="M285.6784 60.3893 C286.6256 59.7512 287.8228 58.9445 288.7505 58.3193" fill="none" stroke="#183923" stroke-width="0.5482"/><path d="M285.1557 59.8679 C285.9697 58.6928 287.1569 57.079 288.3593 55.7979 C288.4958 55.6524 288.6447 55.5067 288.7971 55.3657" fill="none" stroke="#183923" stroke-width="0.133"/><path d="M291.9302 62.5131 C292.6658 63.0085 293.5517 63.6056 294.345 64.1403" fill="none" stroke="#183923" stroke-width="0.6"/><path d="M291.4805 62.9716 C291.7294 63.3202 291.9867 63.6921 292.2169 64.045 C293.3607 65.7987 293.2663 66.4974 294.6112 68.1019 C294.7422 68.2581 294.8891 68.4115 295.0414 68.5578" fill="none" stroke="#183923" stroke-width="0.6"/><path d="M291.5903 59.9936 C291.8271 59.6586 292.0525 59.2921 292.2169 58.9239 C294.3471 54.1547 291.9541 51.9148 294.6112 47.4179 C294.7281 47.22 294.8785 47.0346 295.0435 46.8652" fill="none" stroke="#183923" stroke-width="0.133"/><path d="M291.5705 59.9842 C291.8084 59.6497 292.0393 59.2859 292.2169 58.9239 C293.9248 55.4473 292.5201 53.8045 294.6112 50.5439 C294.7355 50.3503 294.8899 50.1674 295.0567 49.9992" fill="none" stroke="#183923" stroke-width="0.133"/><path d="M291.5971 60.0036 C292.4237 59.0627 293.5491 57.8242 294.6112 56.7956 C294.7515 56.6595 294.9017 56.5209 295.0535 56.385" fill="none" stroke="#183923" stroke-width="0.133"/><path d="M292.2235 61.4511 C293.0742 61.4511 294.0698 61.4511 294.8831 61.4511" fill="none" stroke="#183923" stroke-width="0.133"/><path d="M292.0267 60.5971 C292.9431 60.1286 294.0711 59.5525 294.9617 59.0977" fill="none" stroke="#183923" stroke-width="0.133"/><path d="M291.5305 59.9625 C291.7705 59.6296 292.0128 59.2715 292.2169 58.9239 C293.517 56.7114 293.0689 55.7207 294.6112 53.6697 C294.7441 53.4928 294.8999 53.3218 295.0641 53.1618" fill="none" stroke="#183923" stroke-width="0.133"/><path d="M298.1819 64.5128 C299.1291 63.8746 300.3262 63.0679 301.254 62.4428" fill="none" stroke="#183923" stroke-width="0.6"/><path d="M298.4753 65.5748 C299.0099 65.5748 299.6027 65.5748 300.1705 65.5748" fill="none" stroke="#183923" stroke-width="0.6"/><path d="M298.1819 66.6365 C299.1291 67.2747 300.3262 68.0816 301.254 68.7066" fill="none" stroke="#183923" stroke-width="0.3414"/><path d="M297.7251 67.1175 C298.8644 68.683 300.513 70.927 300.863 71.2943 C300.9979 71.4362 301.1461 71.5776 301.2984 71.7136" fill="none" stroke="#183923" stroke-width="0.133"/><path d="M303.76 60.8616 C304.0971 60.6054 304.461 60.2813 304.7204 59.9216 C306.4596 57.5077 306.0365 56.4431 307.1147 53.6697 C307.5191 52.629 307.9793 51.4618 308.341 50.5482" fill="none" stroke="#183923" stroke-width="0.3325"/><path d="M310.0178 48.271 C310.3336 48.018 310.6814 47.7188 310.9721 47.4179 C312.1885 46.1597 312.1632 45.563 313.3664 44.2922 C313.5035 44.1472 313.653 44.0018 313.8053 43.861" fill="none" stroke="#183923" stroke-width="0.3325"/><path d="M310.0118 48.3581 C310.3489 48.1019 310.7127 47.7778 310.9721 47.4179 C312.7113 45.004 311.6525 43.5984 313.3664 41.1662 C313.4961 40.982 313.6524 40.8052 313.8179 40.6415" fill="none" stroke="#183923" stroke-width="0.3325"/><path d="M316.2722 42.0542 C316.5953 41.8 316.9471 41.4914 317.2239 41.1662 C318.5965 39.5515 318.2626 38.6716 319.6181 37.0427 C319.7484 36.8864 319.8949 36.7328 320.047 36.5857" fill="none" stroke="#183923" stroke-width="0.3325"/><path d="M316.2641 42.0873 C317.2499 41.4237 318.842 40.3508 320.0078 39.5647" fill="none" stroke="#183923" stroke-width="0.3325"/><path d="M322.5152 34.8573 C322.8525 34.6006 323.2162 34.2767 323.4756 33.917 C325.2147 31.5033 324.156 30.0974 325.8699 27.665 C325.9996 27.4808 326.1559 27.304 326.3214 27.1404" fill="none" stroke="#183923" stroke-width="0.3325"/><path d="M328.7677 25.6074 C329.7439 25.1092 331.3162 24.3059 332.4794 23.7118" fill="none" stroke="#183923" stroke-width="0.6" stroke-dasharray="0.0665 0.3325"/><path d="M335.0194 22.943 C335.9685 22.943 337.4809 22.943 338.6335 22.943" fill="none" stroke="#183923" stroke-width="0.3325"/><path d="M335.0194 22.4815 C335.9958 21.9834 337.568 21.1799 338.7312 20.586" fill="none" stroke="#183923" stroke-width="0.3325"/><path d="M341.2725 22.943 C342.0113 22.943 343.0756 22.943 343.9581 22.943" fill="none" stroke="#183923" stroke-width="0.3325"/><path d="M346.5918 22.943 C347.1053 22.943 347.7637 22.943 348.3602 22.943" fill="none" stroke="#183923" stroke-width="0.6" stroke-dasharray="0.0665 0.3325"/><path d="M285.0054 27.137 C285.9818 26.6389 287.5539 25.8356 288.7171 25.2415" fill="none" stroke="#183923" stroke-width="0.3325"/><path d="M285.0054 27.5987 C285.9545 27.5987 287.4668 27.5987 288.6195 27.5987" fill="none" stroke="#183923" stroke-width="0.3325"/><path d="M291.2571 24.4727 C292.2062 24.4727 293.7185 24.4727 294.8712 24.4727" fill="none" stroke="#183923" stroke-width="0.3325"/><path d="M297.5089 24.4727 C298.4579 24.4727 299.9703 24.4727 301.1229 24.4727" fill="none" stroke="#183923" stroke-width="0.3325"/><path d="M297.5089 24.0112 C298.4853 23.5131 300.0576 22.7096 301.2208 22.1157" fill="none" stroke="#183923" stroke-width="0.3325"/><path d="M303.7646 23.8868 C304.1032 23.6307 304.4657 23.3061 304.7204 22.943 C306.5553 20.3246 305.3077 18.7969 307.1147 16.1592 C307.2423 15.973 307.3967 15.7954 307.5615 15.6312" fill="none" stroke="#183923" stroke-width="0.6" stroke-dasharray="0.0665 0.3325"/><path d="M310.0123 14.563 C310.9614 14.563 312.4739 14.563 313.6264 14.563" fill="none" stroke="#183923" stroke-width="0.6" stroke-dasharray="0.0665 0.3325"/><path d="M316.2641 14.563 C317.2133 14.563 318.7257 14.563 319.8781 14.563" fill="none" stroke="#183923" stroke-width="0.6" stroke-dasharray="0.0665 0.3325"/><path d="M285.0128 84.9457 C285.3512 85.213 285.7137 85.5512 285.965 85.9262 C287.8546 88.7445 286.4407 90.377 288.3593 93.1754 C288.485 93.3583 288.6381 93.5312 288.8023 93.6899" fill="none" stroke="#183923" stroke-width="0.6" stroke-dasharray="0.0665 0.3325"/><path d="M291.2571 94.9406 C292.2154 95.1906 293.7472 95.5903 294.9038 95.8919" fill="none" stroke="#183923" stroke-width="0.6" stroke-dasharray="0.0665 0.3325"/><path d="M297.5089 96.5271 C298.4673 96.7667 299.9989 97.1496 301.1555 97.4386" fill="none" stroke="#183923" stroke-width="0.6" stroke-dasharray="0.0665 0.3325"/><path d="M284.8778 92.4704 C285.7011 93.4665 287.0605 95.0522 288.3593 96.3014 C288.4884 96.4258 288.6268 96.5514 288.7676 96.6743" fill="none" stroke="#183923" stroke-width="0.6" stroke-dasharray="0.0665 0.3325"/><path d="M291.2571 98.0666 C292.2154 98.3166 293.7472 98.7161 294.9038 99.0179" fill="none" stroke="#183923" stroke-width="0.6" stroke-dasharray="0.0665 0.3325"/><path d="M297.5089 99.653 C298.4673 99.8925 299.9989 100.2755 301.1555 100.5646" fill="none" stroke="#183923" stroke-width="0.6" stroke-dasharray="0.0665 0.3325"/><path d="M303.7606 100.9569 C304.7096 100.9569 306.222 100.9569 307.3747 100.9569" fill="none" stroke="#183923" stroke-width="0.3325"/><path d="M285.0054 97.1017 C285.991 97.8298 287.5833 99.0066 288.7492 99.8687" fill="none" stroke="#183923" stroke-width="0.6" stroke-dasharray="0.0665 0.3325"/><path d="M322.5292 37.9352 C322.8531 37.6818 323.2043 37.3719 323.4756 37.0427 C325.0798 35.0994 326.3634 32.4583 327.0863 30.7902" fill="none" stroke="#183923" stroke-width="0.6" stroke-dasharray="0.0665 0.3325"/><path d="M328.7677 29.1947 C329.7168 29.1947 331.2291 29.1947 332.3818 29.1947" fill="none" stroke="#183923" stroke-width="0.3325"/><path d="M328.7677 28.7332 C329.7439 28.2352 331.3162 27.4316 332.4794 26.8378" fill="none" stroke="#183923" stroke-width="0.3325"/><path d="M335.0194 29.1947 C335.9685 29.1947 337.4809 29.1947 338.6335 29.1947" fill="none" stroke="#183923" stroke-width="0.6" stroke-dasharray="0.0665 0.3325"/><path d="M285.0054 24.0112 C285.9818 23.5131 287.5539 22.7096 288.7171 22.1157" fill="none" stroke="#183923" stroke-width="0.6" stroke-dasharray="0.0665 0.3325"/><path d="M291.2571 21.3469 C292.2062 21.3469 293.7185 21.3469 294.8712 21.3469" fill="none" stroke="#183923" stroke-width="0.6" stroke-dasharray="0.0665 0.3325"/><path d="M285.0054 32.326 C285.9637 32.191 287.4955 31.9742 288.6521 31.8106" fill="none" stroke="#183923" stroke-width="0.6" stroke-dasharray="0.0665 0.3325"/><path d="M291.2571 31.0005 C292.2428 30.358 293.8351 29.3192 295.0009 28.559" fill="none" stroke="#183923" stroke-width="0.6" stroke-dasharray="0.0665 0.3325"/><path d="M297.5089 27.5987 C298.4579 27.5987 299.9703 27.5987 301.1229 27.5987" fill="none" stroke="#183923" stroke-width="0.6" stroke-dasharray="0.0665 0.3325"/><path d="M303.7646 27.0127 C304.1032 26.7567 304.4657 26.4321 304.7204 26.069 C306.5553 23.4505 305.3077 21.9229 307.1147 19.285 C307.2423 19.0989 307.3967 18.9214 307.5615 18.757" fill="none" stroke="#183923" stroke-width="0.3325"/><path d="M285.0067 66.2237 C285.3367 66.491 285.6945 66.8202 285.965 67.1708 C287.6983 69.419 288.9865 72.4859 289.6696 74.3363" fill="none" stroke="#183923" stroke-width="0.3325"/><path d="M291.2571 75.9499 C292.2062 75.9499 293.7185 75.9499 294.8712 75.9499" fill="none" stroke="#183923" stroke-width="0.3325"/><path d="M291.2571 76.4111 C292.2335 76.9099 293.8056 77.7128 294.9689 78.3073" fill="none" stroke="#183923" stroke-width="0.3325"/><path d="M297.5123 76.6612 C297.8275 76.9258 298.1759 77.2368 298.4687 77.5462 C299.6717 78.817 299.6464 79.4138 300.863 80.672 C300.9993 80.813 301.1482 80.9536 301.3005 81.0894" fill="none" stroke="#183923" stroke-width="0.6" stroke-dasharray="0.0665 0.3325"/><path d="M303.7606 82.3195 C304.7191 82.4443 306.2507 82.6442 307.4073 82.7952" fill="none" stroke="#183923" stroke-width="0.6" stroke-dasharray="0.0665 0.3325"/><path d="M309.6811 83.9571 C310.0497 84.5756 310.5398 85.398 310.9721 86.1257 C312.1267 88.0688 313.4535 90.3095 314.3147 91.7645" fill="none" stroke="#183923" stroke-width="0.6" stroke-dasharray="0.0665 0.3325"/><path d="M316.2641 93.8483 C317.2404 94.4318 318.8128 95.3716 319.976 96.0671" fill="none" stroke="#183923" stroke-width="0.6" stroke-dasharray="0.0665 0.3325"/><path d="M285.0128 81.8197 C285.3512 82.0873 285.7137 82.4253 285.965 82.8003 C287.8546 85.6187 286.4407 87.2512 288.3593 90.0497 C288.485 90.2325 288.6381 90.4052 288.8023 90.5642" fill="none" stroke="#183923" stroke-width="0.6" stroke-dasharray="0.0665 0.3325"/><path d="M291.2571 91.5794 C292.2062 91.5794 293.7185 91.5794 294.8712 91.5794" fill="none" stroke="#183923" stroke-width="0.6" stroke-dasharray="0.0665 0.3325"/><path d="M285.0128 75.568 C285.3512 75.8355 285.7137 76.1735 285.965 76.5485 C287.8546 79.367 286.4407 80.9995 288.3593 83.7979 C288.485 83.9808 288.6381 84.1535 288.8023 84.3124" fill="none" stroke="#183923" stroke-width="0.6" stroke-dasharray="0.0665 0.3325"/><path d="M291.2571 85.3276 C292.2062 85.3276 293.7185 85.3276 294.8712 85.3276" fill="none" stroke="#183923" stroke-width="0.6" stroke-dasharray="0.0665 0.3325"/><path d="M297.5123 86.039 C297.8275 86.3033 298.1759 86.6145 298.4687 86.9237 C299.6717 88.1948 299.6464 88.7913 300.863 90.0497 C300.9993 90.1907 301.1482 90.3313 301.3005 90.4671" fill="none" stroke="#183923" stroke-width="0.6" stroke-dasharray="0.0665 0.3325"/><path d="M303.7606 91.5794 C304.7096 91.5794 306.222 91.5794 307.3747 91.5794" fill="none" stroke="#183923" stroke-width="0.6" stroke-dasharray="0.0665 0.3325"/><path d="M285.0128 78.6938 C285.3512 78.9613 285.7137 79.2995 285.965 79.6743 C287.8546 82.4928 286.4407 84.1252 288.3593 86.9237 C288.485 87.1066 288.6381 87.2793 288.8023 87.4382" fill="none" stroke="#183923" stroke-width="0.6" stroke-dasharray="0.0665 0.3325"/><path d="M291.2571 88.4534 C292.2062 88.4534 293.7185 88.4534 294.8712 88.4534" fill="none" stroke="#183923" stroke-width="0.6" stroke-dasharray="0.0665 0.3325"/><path d="M297.5123 89.1647 C297.8275 89.4292 298.1759 89.7403 298.4687 90.0497 C299.6717 91.3205 299.6464 91.9172 300.863 93.1754 C300.9993 93.3165 301.1482 93.4571 301.3005 93.5928" fill="none" stroke="#183923" stroke-width="0.6" stroke-dasharray="0.0665 0.3325"/><path d="M303.7606 94.7051 C304.7096 94.7051 306.222 94.7051 307.3747 94.7051" fill="none" stroke="#183923" stroke-width="0.3325"/><path d="M285.0054 48.7796 C285.9818 48.2386 287.5539 47.3672 288.7171 46.7223" fill="none" stroke="#183923" stroke-width="0.6" stroke-dasharray="0.0665 0.3325"/><path d="M290.5841 44.9198 C291.0775 42.9806 292.3785 38.5432 294.6112 35.4465 C294.7407 35.267 294.8944 35.0947 295.0575 34.9337" fill="none" stroke="#183923" stroke-width="0.6" stroke-dasharray="0.0665 0.3325"/><path d="M297.5089 33.3889 C298.4853 32.8906 300.0576 32.0873 301.2208 31.4933" fill="none" stroke="#183923" stroke-width="0.6" stroke-dasharray="0.0665 0.3325"/><path d="M303.7646 30.1385 C304.1032 29.8825 304.4657 29.558 304.7204 29.1947 C306.5553 26.5763 305.3077 25.0487 307.1147 22.411 C307.2423 22.2247 307.3967 22.0471 307.5615 21.8829" fill="none" stroke="#183923" stroke-width="0.6" stroke-dasharray="0.0665 0.3325"/><path d="M310.0123 20.7363 C310.9708 20.6532 312.5024 20.5195 313.659 20.419" fill="none" stroke="#183923" stroke-width="0.6" stroke-dasharray="0.0665 0.3325"/><path d="M316.2641 20.2143 C317.2133 20.1417 318.7257 20.0267 319.8781 19.9388" fill="none" stroke="#183923" stroke-width="0.6" stroke-dasharray="0.0665 0.3325"/><path d="M335.0194 26.069 C335.9685 26.069 337.4809 26.069 338.6335 26.069" fill="none" stroke="#183923" stroke-width="0.3325"/><path d="M341.2725 26.069 C342.0113 26.069 343.0756 26.069 343.9581 26.069" fill="none" stroke="#183923" stroke-width="0.6" stroke-dasharray="0.0665 0.3325"/><path d="M346.5918 26.069 C347.1053 26.069 347.7637 26.069 348.3602 26.069" fill="none" stroke="#183923" stroke-width="0.3325"/><path d="M346.5918 26.732 C347.1451 27.1377 347.8655 27.6671 348.4972 28.1307" fill="none" stroke="#183923" stroke-width="0.3325"/><path d="M291.2571 27.137 C292.2335 26.6389 293.8056 25.8356 294.9689 25.2415" fill="none" stroke="#183923" stroke-width="0.3325"/><path d="M303.2099 20.3798 C303.8311 18.753 305.2371 15.4144 307.1147 13.0333 C307.2516 12.8598 307.4099 12.6902 307.5749 12.5312" fill="none" stroke="#183923" stroke-width="0.6" stroke-dasharray="0.0665 0.3325"/><path d="M310.0123 11.4372 C310.9614 11.4372 312.4739 11.4372 313.6264 11.4372" fill="none" stroke="#183923" stroke-width="0.6" stroke-dasharray="0.0665 0.3325"/><path d="M316.2641 11.4372 C317.2133 11.4372 318.7257 11.4372 319.8781 11.4372" fill="none" stroke="#183923" stroke-width="0.6" stroke-dasharray="0.0665 0.3325"/><path d="M322.516 11.4372 C323.465 11.4372 324.9774 11.4372 326.1299 11.4372" fill="none" stroke="#183923" stroke-width="0.6" stroke-dasharray="0.0665 0.3325"/><path d="M285.0054 38.8398 C285.9637 38.5585 287.4955 38.1089 288.6521 37.7697" fill="none" stroke="#183923" stroke-width="0.6" stroke-dasharray="0.0665 0.3325"/><path d="M291.0975 36.351 C291.9162 35.3175 293.2923 33.6423 294.6112 32.3207 C294.7494 32.1823 294.8978 32.0421 295.0488 31.905" fill="none" stroke="#183923" stroke-width="0.6" stroke-dasharray="0.0665 0.3325"/><path d="M285.0128 69.3162 C285.3512 69.5838 285.7137 69.9218 285.965 70.2968 C287.8546 73.1151 286.4407 74.7477 288.3593 77.5462 C288.485 77.7291 288.6381 77.9017 288.8023 78.0607" fill="none" stroke="#183923" stroke-width="0.6" stroke-dasharray="0.0665 0.3325"/><path d="M291.2571 79.537 C292.2335 80.0357 293.8056 80.8388 294.9689 81.4331" fill="none" stroke="#183923" stroke-width="0.6" stroke-dasharray="0.0665 0.3325"/><path d="M297.5123 82.913 C297.8275 83.1775 298.1759 83.4886 298.4687 83.7979 C299.6717 85.0688 299.6464 85.6655 300.863 86.9237 C300.9993 87.0647 301.1482 87.2054 301.3005 87.3411" fill="none" stroke="#183923" stroke-width="0.6" stroke-dasharray="0.0665 0.3325"/><path d="M297.5123 79.787 C297.8275 80.0515 298.1759 80.3628 298.4687 80.672 C299.6717 81.943 299.6464 82.5395 300.863 83.7979 C300.9993 83.939 301.1482 84.0796 301.3005 84.2153" fill="none" stroke="#183923" stroke-width="0.6" stroke-dasharray="0.0665 0.3325"/><path d="M303.7606 85.6709 C304.7283 86.039 306.2799 86.6292 307.4399 87.0706" fill="none" stroke="#183923" stroke-width="0.6" stroke-dasharray="0.0665 0.3325"/><path d="M285.0128 72.442 C285.3512 72.7095 285.7137 73.0478 285.965 73.4225 C287.8546 76.241 286.4407 77.8735 288.3593 80.672 C288.485 80.8549 288.6381 81.0275 288.8023 81.1865" fill="none" stroke="#183923" stroke-width="0.6" stroke-dasharray="0.0665 0.3325"/><path d="M290.9678 66.5409 C291.742 67.7249 293.1507 69.7623 294.6112 71.2943 C294.7462 71.4362 294.8944 71.5776 295.0467 71.7136" fill="none" stroke="#183923" stroke-width="0.6" stroke-dasharray="0.0665 0.3325"/><path d="M297.5123 73.5353 C297.8275 73.7998 298.1759 74.111 298.4687 74.4202 C299.6717 75.6913 299.6464 76.2878 300.863 77.5462 C300.9993 77.687 301.1482 77.8278 301.3005 77.9636" fill="none" stroke="#183923" stroke-width="0.6" stroke-dasharray="0.0665 0.3325"/><path d="M291.2677 56.7726 C291.615 56.5174 291.9828 56.1846 292.2169 55.7979 C294.921 51.3291 291.5318 48.511 294.6112 44.2922 C296.1328 42.207 302.8368 40.3376 304.7204 38.5724 C306.1383 37.2435 305.8323 36.3744 307.1147 34.9145 C307.2489 34.7616 307.398 34.6098 307.5517 34.4648" fill="none" stroke="#183923" stroke-width="0.6" stroke-dasharray="0.0665 0.3325"/><path d="M310.0123 32.8567 C310.9887 32.3586 312.561 31.5551 313.7242 30.9612" fill="none" stroke="#183923" stroke-width="0.3325"/><path d="M310.0123 33.3184 C310.9614 33.3184 312.4739 33.3184 313.6264 33.3184" fill="none" stroke="#183923" stroke-width="0.3325"/><path d="M316.2722 29.5507 C316.5953 29.2966 316.9471 28.9879 317.2239 28.6627 C318.5965 27.048 318.2626 26.1679 319.6181 24.5393 C319.7484 24.383 319.8949 24.2293 320.047 24.0823" fill="none" stroke="#183923" stroke-width="0.3325"/><path d="M322.5179 22.2626 C322.8331 22.01 323.1817 21.7114 323.4756 21.4133 C324.6722 20.2009 324.7106 19.6689 325.8699 18.4204 C326.0075 18.2723 326.1566 18.1212 326.3069 17.9736" fill="none" stroke="#183923" stroke-width="0.6" stroke-dasharray="0.0665 0.3325"/><path d="M328.7677 16.6913 C329.7168 16.6913 331.2291 16.6913 332.3818 16.6913" fill="none" stroke="#183923" stroke-width="0.6" stroke-dasharray="0.0665 0.3325"/><path d="M335.0194 16.6913 C335.9685 16.6913 337.4809 16.6913 338.6335 16.6913" fill="none" stroke="#183923" stroke-width="0.6" stroke-dasharray="0.0665 0.3325"/><path d="M341.2725 16.6913 C342.0113 16.6913 343.0756 16.6913 343.9581 16.6913" fill="none" stroke="#183923" stroke-width="0.6" stroke-dasharray="0.0665 0.3325"/><path d="M291.2645 53.645 C291.6116 53.3891 291.9801 53.0567 292.2169 52.6722 C294.7602 48.5449 292.3099 46.2975 294.6112 42.0308 C294.7415 41.7887 294.9112 41.5561 295.0946 41.3406" fill="none" stroke="#183923" stroke-width="0.6" stroke-dasharray="0.0665 0.3325"/><path d="M297.5089 39.6406 C298.4853 39.1424 300.0576 38.339 301.2208 37.745" fill="none" stroke="#183923" stroke-width="0.6" stroke-dasharray="0.0665 0.3325"/><path d="M303.7646 36.3902 C304.1032 36.1342 304.4657 35.8098 304.7204 35.4465 C306.5553 32.8282 305.3077 31.3004 307.1147 28.6627 C307.2423 28.4765 307.3967 28.2989 307.5615 28.1347" fill="none" stroke="#183923" stroke-width="0.6" stroke-dasharray="0.0665 0.3325"/><path d="M316.2722 38.9282 C316.5953 38.6742 316.9471 38.3656 317.2239 38.0404 C318.5965 36.4255 318.2626 35.5456 319.6181 33.917 C319.7484 33.7607 319.8949 33.607 320.047 33.46" fill="none" stroke="#183923" stroke-width="0.6" stroke-dasharray="0.0665 0.3325"/><path d="M322.5152 31.7314 C322.8525 31.4748 323.2162 31.1509 323.4756 30.791 C325.2147 28.3775 323.5934 26.4553 325.8699 24.5393 C327.7135 22.9877 330.6285 22.7841 332.417 22.8286" fill="none" stroke="#183923" stroke-width="0.6" stroke-dasharray="0.0665 0.3325"/><path d="M297.5123 70.4095 C297.8275 70.6738 298.1759 70.9851 298.4687 71.2943 C299.6717 72.5653 299.6464 73.1618 300.863 74.4202 C300.9993 74.5612 301.1482 74.7019 301.3005 74.8376" fill="none" stroke="#183923" stroke-width="0.6" stroke-dasharray="0.0665 0.3325"/><path d="M303.7606 76.4111 C304.737 76.9099 306.3093 77.7128 307.4725 78.3073" fill="none" stroke="#183923" stroke-width="0.6" stroke-dasharray="0.0665 0.3325"/><path d="M310.0123 79.0757 C310.9614 79.0757 312.4739 79.0757 313.6264 79.0757" fill="none" stroke="#183923" stroke-width="0.6" stroke-dasharray="0.0665 0.3325"/><path d="M297.5089 45.3605 C298.4853 44.8619 300.0576 44.0588 301.2208 43.4647" fill="none" stroke="#183923" stroke-width="0.6" stroke-dasharray="0.0665 0.3325"/><path d="M303.3178 41.7395 C303.7101 40.9102 304.2787 39.6731 304.7204 38.5724 C305.9115 35.6056 305.3077 34.4264 307.1147 31.7887 C307.2423 31.6024 307.3967 31.4248 307.5615 31.2606" fill="none" stroke="#183923" stroke-width="0.6" stroke-dasharray="0.0665 0.3325"/><path d="M310.0123 29.7309 C310.9887 29.2326 312.561 28.4293 313.7242 27.8355" fill="none" stroke="#183923" stroke-width="0.6" stroke-dasharray="0.0665 0.3325"/><path d="M297.5089 48.4865 C298.4853 47.9878 300.0576 47.1847 301.2208 46.5903" fill="none" stroke="#183923" stroke-width="0.3325"/><path d="M303.7627 45.2616 C304.1084 45.0052 304.4776 44.6733 304.7204 44.2922 C307.0289 40.6628 304.8441 38.5677 307.1147 34.9145 C307.2357 34.719 307.3894 34.5353 307.5549 34.3664" fill="none" stroke="#183923" stroke-width="0.3325"/><path d="M316.2722 32.6765 C316.5953 32.4225 316.9471 32.1139 317.2239 31.7887 C318.5965 30.1738 318.2626 29.2939 319.6181 27.665 C319.7484 27.5087 319.8949 27.3553 320.047 27.2082" fill="none" stroke="#183923" stroke-width="0.6" stroke-dasharray="0.0665 0.3325"/><path d="M322.5245 25.3612 C322.8344 25.1105 323.177 24.8205 323.4756 24.5393 C324.5338 23.5429 325.6484 22.3352 326.4711 21.4088" fill="none" stroke="#183923" stroke-width="0.6" stroke-dasharray="0.0665 0.3325"/><path d="M328.7677 19.9302 C329.7168 19.9096 331.2291 19.877 332.3818 19.8517" fill="none" stroke="#183923" stroke-width="0.6" stroke-dasharray="0.0665 0.3325"/><path d="M297.5089 54.7382 C298.4853 54.2396 300.0576 53.4364 301.2208 52.8422" fill="none" stroke="#183923" stroke-width="0.3325"/><path d="M303.7627 51.5133 C304.1084 51.2569 304.4776 50.9251 304.7204 50.5439 C307.0289 46.9144 304.8441 44.8196 307.1147 41.1662 C307.2357 40.9707 307.3894 40.7871 307.5549 40.6181" fill="none" stroke="#183923" stroke-width="0.6" stroke-dasharray="0.0665 0.3325"/><path d="M310.0123 39.1084 C310.9887 38.6103 312.561 37.8068 313.7242 37.213" fill="none" stroke="#183923" stroke-width="0.6" stroke-dasharray="0.0665 0.3325"/><path d="M316.2722 35.8024 C316.5953 35.5483 316.9471 35.2397 317.2239 34.9145 C318.5965 33.2997 318.2626 32.4199 319.6181 30.791 C319.7484 30.6347 319.8949 30.4811 320.047 30.334" fill="none" stroke="#183923" stroke-width="0.6" stroke-dasharray="0.0665 0.3325"/><path d="M297.5089 60.99 C298.4853 60.4913 300.0576 59.6882 301.2208 59.094" fill="none" stroke="#183923" stroke-width="0.3325"/><path d="M303.7627 57.765 C304.1084 57.5088 304.4776 57.177 304.7204 56.7956 C307.0289 53.1661 304.8441 51.0714 307.1147 47.4179 C307.2357 47.2228 307.3894 47.0388 307.5549 46.8701" fill="none" stroke="#183923" stroke-width="0.6" stroke-dasharray="0.0665 0.3325"/><path d="M297.5089 57.864 C298.4853 57.3654 300.0576 56.5622 301.2208 55.968" fill="none" stroke="#183923" stroke-width="0.3325"/><path d="M303.7627 54.6391 C304.1084 54.3829 304.4776 54.0511 304.7204 53.6697 C307.0289 50.0403 304.8441 47.9456 307.1147 44.2922 C307.2357 44.0968 307.3894 43.9128 307.5549 43.7441" fill="none" stroke="#183923" stroke-width="0.6" stroke-dasharray="0.0665 0.3325"/><path d="M297.5089 51.6123 C298.4853 51.1136 300.0576 50.3105 301.2208 49.7163" fill="none" stroke="#183923" stroke-width="0.3325"/><path d="M303.7627 48.3873 C304.1084 48.1311 304.4776 47.7993 304.7204 47.4179 C307.0289 43.7886 304.8441 41.6937 307.1147 38.0404 C307.2357 37.8449 307.3894 37.6613 307.5549 37.4924" fill="none" stroke="#183923" stroke-width="0.6" stroke-dasharray="0.0665 0.3325"/><path d="M341.2725 19.8172 C342.0113 19.8172 343.0756 19.8172 343.9581 19.8172" fill="none" stroke="#183923" stroke-width="0.3325"/><path d="M346.5918 19.8172 C347.1053 19.8172 347.7637 19.8172 348.3602 19.8172" fill="none" stroke="#183923" stroke-width="0.6" stroke-dasharray="0.0665 0.3325"/><path d="M304.05 64.0954 C304.2894 63.7617 304.5268 63.4012 304.7204 63.0474 C306.1475 60.4368 305.4008 59.2276 307.1147 56.7956 C307.2444 56.6111 307.4007 56.4348 307.5662 56.2708" fill="none" stroke="#183923" stroke-width="0.6"/><path d="M303.9787 64.0515 C305.1201 62.5055 306.7701 60.2888 307.1147 59.9216 C307.251 59.776 307.3999 59.6301 307.5523 59.4893" fill="none" stroke="#183923" stroke-width="0.6"/><path d="M304.4336 64.5128 C305.3808 63.8746 306.5779 63.0679 307.5057 62.4428" fill="none" stroke="#183923" stroke-width="0.6"/><path d="M304.727 65.5748 C305.2617 65.5748 305.8544 65.5748 306.4222 65.5748" fill="none" stroke="#183923" stroke-width="0.133"/><path d="M304.4336 66.6365 C305.3808 67.2747 306.5779 68.0816 307.5057 68.7066" fill="none" stroke="#183923" stroke-width="0.133"/><path d="M309.4963 54.2464 C310.1481 52.7091 311.572 49.6307 313.3664 47.4179 C313.4948 47.2597 313.6398 47.1052 313.7913 46.9581" fill="none" stroke="#183923" stroke-width="0.3325"/><path d="M316.2641 45.2133 C317.2499 44.5495 318.842 43.4768 320.0078 42.6906" fill="none" stroke="#183923" stroke-width="0.6" stroke-dasharray="0.0665 0.3325"/><path d="M322.5252 40.9912 C322.8344 40.7399 323.1777 40.45 323.4756 40.1687 C324.6162 39.0918 324.7406 38.6635 325.8699 37.5748 C326.0109 37.4392 326.1611 37.3008 326.3129 37.1651" fill="none" stroke="#183923" stroke-width="0.3325"/><path d="M322.516 41.3159 C323.4835 40.9055 325.0353 40.2477 326.1951 39.7562" fill="none" stroke="#183923" stroke-width="0.3325"/><path d="M328.7677 35.5662 C329.7354 35.1247 331.287 34.4164 332.4468 33.887" fill="none" stroke="#183923" stroke-width="0.6" stroke-dasharray="0.0665 0.3325"/><path d="M335.0194 33.0577 C335.9777 32.9227 337.5095 32.7057 338.6661 32.5422" fill="none" stroke="#183923" stroke-width="0.6" stroke-dasharray="0.0665 0.3325"/><path d="M303.7606 70.1593 C304.737 70.658 306.3093 71.4611 307.4725 72.0555" fill="none" stroke="#183923" stroke-width="0.6" stroke-dasharray="0.0665 0.3325"/><path d="M310.0123 72.824 C310.9614 72.824 312.4739 72.824 313.6264 72.824" fill="none" stroke="#183923" stroke-width="0.6" stroke-dasharray="0.0665 0.3325"/><path d="M316.2748 73.4107 C316.6219 73.6784 316.9897 74.0243 317.2239 74.4202 C319.8808 78.9172 317.2152 81.2885 319.6181 85.9262 C319.7505 86.1817 319.9247 86.4283 320.1143 86.656" fill="none" stroke="#183923" stroke-width="0.6" stroke-dasharray="0.0665 0.3325"/><path d="M322.3802 88.8776 C322.7341 89.3391 323.147 89.9085 323.4756 90.4486 C324.7259 92.5041 324.3749 93.4188 325.8699 95.3037 C325.9969 95.4636 326.1425 95.618 326.2961 95.7633" fill="none" stroke="#183923" stroke-width="0.6" stroke-dasharray="0.0665 0.3325"/><path d="M328.7677 96.8334 C329.7168 96.8334 331.2291 96.8334 332.3818 96.8334" fill="none" stroke="#183923" stroke-width="0.6" stroke-dasharray="0.0665 0.3325"/><path d="M335.0194 96.8334 C335.9685 96.8334 337.4809 96.8334 338.6335 96.8334" fill="none" stroke="#183923" stroke-width="0.6" stroke-dasharray="0.0665 0.3325"/><path d="M341.2725 96.8334 C342.0113 96.8334 343.0756 96.8334 343.9581 96.8334" fill="none" stroke="#183923" stroke-width="0.6" stroke-dasharray="0.0665 0.3325"/><path d="M303.7606 73.2853 C304.737 73.784 306.3093 74.5871 307.4725 75.1813" fill="none" stroke="#183923" stroke-width="0.6" stroke-dasharray="0.0665 0.3325"/><path d="M310.0123 75.9499 C310.9614 75.9499 312.4739 75.9499 313.6264 75.9499" fill="none" stroke="#183923" stroke-width="0.6" stroke-dasharray="0.0665 0.3325"/><path d="M316.2761 76.5357 C316.624 76.8032 316.9918 77.1493 317.2239 77.5462 C319.966 82.2283 317.3928 84.5688 319.6181 89.5177 C319.7652 89.8451 319.9633 90.1698 320.1749 90.4708" fill="none" stroke="#183923" stroke-width="0.6" stroke-dasharray="0.0665 0.3325"/><path d="M322.1248 92.9381 C322.8544 94.2565 324.2804 96.6649 325.8699 98.4297 C326.0035 98.5782 326.1525 98.7247 326.3061 98.8646" fill="none" stroke="#183923" stroke-width="0.6" stroke-dasharray="0.0665 0.3325"/><path d="M328.7677 99.9594 C329.7168 99.9594 331.2291 99.9594 332.3818 99.9594" fill="none" stroke="#183923" stroke-width="0.6" stroke-dasharray="0.0665 0.3325"/><path d="M335.0194 99.9594 C335.9685 99.9594 337.4809 99.9594 338.6335 99.9594" fill="none" stroke="#183923" stroke-width="0.6" stroke-dasharray="0.0665 0.3325"/><path d="M328.7677 38.9376 C329.726 38.7606 331.2578 38.4772 332.4142 38.2638" fill="none" stroke="#183923" stroke-width="0.6" stroke-dasharray="0.0665 0.3325"/><path d="M335.0194 37.6008 C335.9872 37.2017 337.5387 36.5605 338.6985 36.0811" fill="none" stroke="#183923" stroke-width="0.6" stroke-dasharray="0.0665 0.3325"/><path d="M341.2725 35.4465 C342.0113 35.4465 343.0756 35.4465 343.9581 35.4465" fill="none" stroke="#183923" stroke-width="0.6" stroke-dasharray="0.0665 0.3325"/><path d="M346.5918 35.4465 C347.1053 35.4465 347.7637 35.4465 348.3602 35.4465" fill="none" stroke="#183923" stroke-width="0.3325"/><path d="M310.0118 57.7358 C310.3489 57.4796 310.7127 57.1555 310.9721 56.7956 C312.7113 54.3817 311.6525 52.9759 313.3664 50.5439 C313.4961 50.3593 313.6524 50.1829 313.8179 50.019" fill="none" stroke="#183923" stroke-width="0.3325"/><path d="M316.2641 48.3392 C317.2499 47.6754 318.842 46.6024 320.0078 45.8164" fill="none" stroke="#183923" stroke-width="0.6" stroke-dasharray="0.0665 0.3325"/><path d="M322.516 44.4415 C323.4835 44.0316 325.0353 43.3736 326.1951 42.8822" fill="none" stroke="#183923" stroke-width="0.6" stroke-dasharray="0.0665 0.3325"/><path d="M328.7677 42.1912 C329.7168 42.1499 331.2291 42.0841 332.3818 42.0342" fill="none" stroke="#183923" stroke-width="0.6" stroke-dasharray="0.0665 0.3325"/><path d="M310.0118 60.8616 C310.3489 60.6054 310.7127 60.2813 310.9721 59.9216 C312.7113 57.5077 311.6525 56.1019 313.3664 53.6697 C313.4961 53.4853 313.6524 53.3088 313.8179 53.1448" fill="none" stroke="#183923" stroke-width="0.3325"/><path d="M316.2641 51.4652 C317.2499 50.8012 318.842 49.7283 320.0078 48.9422" fill="none" stroke="#183923" stroke-width="0.6" stroke-dasharray="0.0665 0.3325"/><path d="M322.516 47.5672 C323.4835 47.1574 325.0353 46.4996 326.1951 46.0077" fill="none" stroke="#183923" stroke-width="0.6" stroke-dasharray="0.0665 0.3325"/><path d="M328.7677 45.317 C329.7168 45.2757 331.2291 45.2101 332.3818 45.1599" fill="none" stroke="#183923" stroke-width="0.6" stroke-dasharray="0.0665 0.3325"/><path d="M335.0313 44.4198 C335.3479 44.1673 335.6944 43.867 335.979 43.5605 C337.2354 42.2091 337.1309 41.5334 338.3733 40.1687 C338.5078 40.0209 338.6554 39.874 338.8069 39.7323" fill="none" stroke="#183923" stroke-width="0.6" stroke-dasharray="0.0665 0.3325"/><path d="M341.2725 38.5724 C342.0113 38.5724 343.0756 38.5724 343.9581 38.5724" fill="none" stroke="#183923" stroke-width="0.6" stroke-dasharray="0.0665 0.3325"/><path d="M310.6854 64.5128 C311.6325 63.8746 312.8297 63.0679 313.7574 62.4428" fill="none" stroke="#183923" stroke-width="0.6"/><path d="M310.9787 65.5748 C311.5134 65.5748 312.1061 65.5748 312.674 65.5748" fill="none" stroke="#183923" stroke-width="0.4826"/><path d="M310.3017 64.0954 C310.5411 63.7617 310.7785 63.4012 310.9721 63.0474 C312.3993 60.4368 311.6525 59.2276 313.3664 56.7956 C313.4961 56.6111 313.6524 56.4348 313.8179 56.2708" fill="none" stroke="#183923" stroke-width="0.4565"/><path d="M310.2305 64.0515 C311.3718 62.5055 313.0218 60.2888 313.3664 59.9216 C313.5027 59.776 313.6517 59.6301 313.804 59.4893" fill="none" stroke="#183923" stroke-width="0.133"/><path d="M316.2641 60.8427 C317.2499 60.1789 318.842 59.1058 320.0078 58.3199" fill="none" stroke="#183923" stroke-width="0.6" stroke-dasharray="0.0665 0.3325"/><path d="M322.516 57.3277 C323.465 57.3277 324.9774 57.3277 326.1299 57.3277" fill="none" stroke="#183923" stroke-width="0.6" stroke-dasharray="0.0665 0.3325"/><path d="M328.7677 57.1216 C329.726 56.9029 331.2578 56.5532 332.4142 56.2893" fill="none" stroke="#183923" stroke-width="0.6" stroke-dasharray="0.0665 0.3325"/><path d="M334.79 54.9624 C335.1697 54.3902 335.6352 53.642 335.979 52.9382 C337.3332 50.1651 336.6129 48.955 338.3733 46.4204 C338.5025 46.2351 338.6574 46.0579 338.823 45.8939" fill="none" stroke="#183923" stroke-width="0.6" stroke-dasharray="0.0665 0.3325"/><path d="M341.2725 44.8242 C342.0113 44.8242 343.0756 44.8242 343.9581 44.8242" fill="none" stroke="#183923" stroke-width="0.6" stroke-dasharray="0.0665 0.3325"/><path d="M346.5918 44.8242 C347.1053 44.8242 347.7637 44.8242 348.3602 44.8242" fill="none" stroke="#183923" stroke-width="0.6" stroke-dasharray="0.0665 0.3325"/><path d="M310.0123 69.6982 C310.9614 69.6982 312.4739 69.6982 313.6264 69.6982" fill="none" stroke="#183923" stroke-width="0.3325"/><path d="M316.5569 67.0558 C316.8016 67.4065 317.0402 67.7892 317.2239 68.1685 C318.9104 71.6555 317.4933 73.31 319.6181 76.5485 C319.7418 76.7374 319.8968 76.9146 320.0631 77.0768" fill="none" stroke="#183923" stroke-width="0.6"/><path d="M316.5774 67.0464 C316.8215 67.3974 317.0542 67.7828 317.2239 68.1685 C319.3248 72.9507 316.9139 75.2054 319.6181 79.6743 C319.7352 79.8677 319.8855 80.0476 320.0504 80.2108" fill="none" stroke="#183923" stroke-width="0.6"/><path d="M316.59 67.0411 C316.8334 67.3925 317.0629 67.7792 317.2239 68.1685 C319.7439 74.257 316.3287 77.0905 319.6181 82.8003 C319.7331 82.9997 319.8842 83.1839 320.0518 83.3506" fill="none" stroke="#183923" stroke-width="0.5888"/><path d="M316.9373 64.5128 C317.6727 64.0173 318.5586 63.4203 319.3521 62.8856" fill="none" stroke="#183923" stroke-width="0.133"/><path d="M317.2305 65.5748 C318.0811 65.5748 319.0767 65.5748 319.8902 65.5748" fill="none" stroke="#183923" stroke-width="0.133"/><path d="M317.0336 66.4288 C317.9501 66.8973 319.078 67.4734 319.9686 67.9281" fill="none" stroke="#183923" stroke-width="0.133"/><path d="M316.5156 67.0777 C316.7629 67.4272 317.0123 67.8039 317.2239 68.1685 C318.5102 70.389 318.0539 71.3882 319.6181 73.4225 C319.7426 73.5843 319.8868 73.7398 320.0391 73.8858" fill="none" stroke="#183923" stroke-width="0.133"/><path d="M316.5753 67.0313 C317.3994 67.992 318.5328 69.2601 319.6181 70.2968 C319.7479 70.4206 319.8862 70.546 320.0272 70.6687" fill="none" stroke="#183923" stroke-width="0.133"/><path d="M322.5145 78.7 C322.8518 78.9684 323.2156 79.3055 323.4756 79.6743 C325.1895 82.1065 324.1307 83.5123 325.8699 85.9262 C325.9996 86.1061 326.1553 86.2771 326.3208 86.4351" fill="none" stroke="#183923" stroke-width="0.6" stroke-dasharray="0.0665 0.3325"/><path d="M328.7677 87.4557 C329.7168 87.4557 331.2291 87.4557 332.3818 87.4557" fill="none" stroke="#183923" stroke-width="0.6" stroke-dasharray="0.0665 0.3325"/><path d="M335.0194 86.9946 C335.9958 86.4959 337.568 85.6928 338.7312 85.0986" fill="none" stroke="#183923" stroke-width="0.3325"/><path d="M335.0194 87.4557 C335.9685 87.4557 337.4809 87.4557 338.6335 87.4557" fill="none" stroke="#183923" stroke-width="0.3325"/><path d="M341.2725 84.33 C342.0113 84.33 343.0756 84.33 343.9581 84.33" fill="none" stroke="#183923" stroke-width="0.6" stroke-dasharray="0.0665 0.3325"/><path d="M346.5918 84.33 C347.1053 84.33 347.7637 84.33 348.3602 84.33" fill="none" stroke="#183923" stroke-width="0.6" stroke-dasharray="0.0665 0.3325"/><path d="M316.2641 54.591 C317.2499 53.9272 318.842 52.8541 320.0078 52.0681" fill="none" stroke="#183923" stroke-width="0.6" stroke-dasharray="0.0665 0.3325"/><path d="M322.516 50.6932 C323.4835 50.2833 325.0353 49.6254 326.1951 49.1337" fill="none" stroke="#183923" stroke-width="0.6" stroke-dasharray="0.0665 0.3325"/><path d="M328.7677 48.4429 C329.7168 48.4017 331.2291 48.3359 332.3818 48.2857" fill="none" stroke="#183923" stroke-width="0.6" stroke-dasharray="0.0665 0.3325"/><path d="M335.0313 47.5457 C335.3479 47.2933 335.6944 46.9928 335.979 46.6864 C337.2354 45.3349 337.1309 44.659 338.3733 43.2945 C338.5078 43.1469 338.6554 42.9998 338.8069 42.8582" fill="none" stroke="#183923" stroke-width="0.6" stroke-dasharray="0.0665 0.3325"/><path d="M316.2641 57.717 C317.2499 57.053 318.842 55.9801 320.0078 55.1939" fill="none" stroke="#183923" stroke-width="0.6" stroke-dasharray="0.0665 0.3325"/><path d="M322.516 54.2019 C323.465 54.2019 324.9774 54.2019 326.1299 54.2019" fill="none" stroke="#183923" stroke-width="0.3325"/><path d="M328.7677 53.7798 C329.7354 53.3279 331.287 52.6024 332.4468 52.0602" fill="none" stroke="#183923" stroke-width="0.6" stroke-dasharray="0.0665 0.3325"/><path d="M333.072 51.4364 C331.559 51.6055 328.4397 52.0055 325.8699 52.6722 C324.9435 52.9123 323.9345 53.2705 323.1311 53.5799" fill="none" stroke="#183923" stroke-width="0.3325"/><path d="M341.2725 87.4557 C342.0113 87.4557 343.0756 87.4557 343.9581 87.4557" fill="none" stroke="#183923" stroke-width="0.6" stroke-dasharray="0.0665 0.3325"/><path d="M346.5918 87.4557 C347.1053 87.4557 347.7637 87.4557 348.3602 87.4557" fill="none" stroke="#183923" stroke-width="0.6" stroke-dasharray="0.0665 0.3325"/><path d="M322.5145 81.8259 C322.8518 82.0942 323.2156 82.4313 323.4756 82.8003 C325.1895 85.2322 324.1307 86.6381 325.8699 89.052 C325.9996 89.2318 326.1553 89.4028 326.3208 89.561" fill="none" stroke="#183923" stroke-width="0.6" stroke-dasharray="0.0665 0.3325"/><path d="M328.7677 90.5817 C329.7168 90.5817 331.2291 90.5817 332.3818 90.5817" fill="none" stroke="#183923" stroke-width="0.6" stroke-dasharray="0.0665 0.3325"/><path d="M335.0194 90.5817 C335.9685 90.5817 337.4809 90.5817 338.6335 90.5817" fill="none" stroke="#183923" stroke-width="0.6" stroke-dasharray="0.0665 0.3325"/><path d="M322.5199 85.1989 C322.8504 85.5478 323.2075 85.9677 323.4756 86.3917 C324.9621 88.7445 324.2131 89.9418 325.8699 92.1779 C325.9917 92.3418 326.134 92.4986 326.2856 92.6453" fill="none" stroke="#183923" stroke-width="0.3325"/><path d="M328.7677 93.7077 C329.7168 93.7077 331.2291 93.7077 332.3818 93.7077" fill="none" stroke="#183923" stroke-width="0.6" stroke-dasharray="0.0665 0.3325"/><path d="M335.0194 93.7077 C335.9685 93.7077 337.4809 93.7077 338.6335 93.7077" fill="none" stroke="#183923" stroke-width="0.6" stroke-dasharray="0.0665 0.3325"/><path d="M341.2725 93.7077 C342.0113 93.7077 343.0756 93.7077 343.9581 93.7077" fill="none" stroke="#183923" stroke-width="0.6" stroke-dasharray="0.0665 0.3325"/><path d="M323.4822 61.4511 C324.017 61.4511 324.6096 61.4511 325.1776 61.4511" fill="none" stroke="#183923" stroke-width="0.6"/><path d="M322.732 62.994 C323.8713 64.5595 325.52 66.8036 325.8699 67.1708 C326.0049 67.3128 326.1532 67.454 326.3056 67.5901" fill="none" stroke="#183923" stroke-width="0.6"/><path d="M323.189 62.5131 C324.136 63.1512 325.3331 63.9579 326.2609 64.5831" fill="none" stroke="#183923" stroke-width="0.2269"/><path d="M322.7846 62.9448 C323.0307 63.2947 323.2761 63.674 323.4756 64.045 C324.8869 66.6644 324.1307 67.8829 325.8699 70.2968 C325.9996 70.4766 326.1553 70.6476 326.3208 70.8056" fill="none" stroke="#183923" stroke-width="0.133"/><path d="M329.7339 61.4511 C330.2688 61.4511 330.8613 61.4511 331.4293 61.4511" fill="none" stroke="#183923" stroke-width="0.133"/><path d="M335.9858 61.4511 C336.5205 61.4511 337.113 61.4511 337.6811 61.4511" fill="none" stroke="#183923" stroke-width="0.285"/><path d="M335.2402 63.011 C335.4996 63.4037 335.763 63.8314 335.979 64.2445 C337.3212 66.8071 336.6694 67.9592 338.3733 70.2968 C338.5038 70.4759 338.6607 70.6465 338.8264 70.8043" fill="none" stroke="#183923" stroke-width="0.285"/><path d="M335.6925 62.5131 C336.6395 63.1512 337.8366 63.9579 338.7645 64.5831" fill="none" stroke="#183923" stroke-width="0.285"/><path d="M334.9902 59.7566 C335.3234 59.0742 335.6917 58.2733 335.979 57.5273 C337.3085 54.0709 336.3535 52.6503 338.3733 49.5462 C338.4964 49.3571 338.6488 49.1778 338.8117 49.0125" fill="none" stroke="#183923" stroke-width="0.285"/><path d="M334.9389 59.7336 C336.1427 57.2217 338.2557 52.8252 338.3733 52.6722 C338.5083 52.4968 338.6661 52.3268 338.8303 52.1673" fill="none" stroke="#183923" stroke-width="0.285"/><path d="M335.1697 59.8679 C335.9838 58.6928 337.1709 57.079 338.3733 55.7979 C338.5098 55.6524 338.6588 55.5067 338.8111 55.3657" fill="none" stroke="#183923" stroke-width="0.285"/><path d="M335.6925 60.3893 C336.6395 59.7512 337.8366 58.9445 338.7645 58.3193" fill="none" stroke="#183923" stroke-width="0.285"/><path d="M342.2415 61.4511 C342.8067 61.4511 343.4213 61.4511 343.966 61.4511" fill="none" stroke="#183923" stroke-width="0.3325"/><path d="M346.5918 61.4511 C347.1053 61.4511 347.7637 61.4511 348.3602 61.4511" fill="none" stroke="#183923" stroke-width="0.3325"/><path d="M322.5145 66.1965 C322.8518 66.465 323.2156 66.8019 323.4756 67.1708 C325.1895 69.6028 324.1307 71.0087 325.8699 73.4225 C325.9996 73.6026 326.1553 73.7736 326.3208 73.9316" fill="none" stroke="#183923" stroke-width="0.6" stroke-dasharray="0.0665 0.3325"/><path d="M328.7677 74.9523 C329.7168 74.9523 331.2291 74.9523 332.3818 74.9523" fill="none" stroke="#183923" stroke-width="0.6" stroke-dasharray="0.0665 0.3325"/><path d="M322.5145 69.3225 C322.8518 69.5907 323.2156 69.9278 323.4756 70.2968 C325.1895 72.7288 324.1307 74.1346 325.8699 76.5485 C325.9996 76.7284 326.1553 76.8994 326.3208 77.0573" fill="none" stroke="#183923" stroke-width="0.3325"/><path d="M328.7677 78.0782 C329.7168 78.0782 331.2291 78.0782 332.3818 78.0782" fill="none" stroke="#183923" stroke-width="0.6" stroke-dasharray="0.0665 0.3325"/><path d="M335.0194 78.0782 C335.9685 78.0782 337.4809 78.0782 338.6335 78.0782" fill="none" stroke="#183923" stroke-width="0.3325"/><path d="M341.2725 78.0782 C342.0113 78.0782 343.0756 78.0782 343.9581 78.0782" fill="none" stroke="#183923" stroke-width="0.3325"/><path d="M346.5918 78.0782 C347.1053 78.0782 347.7637 78.0782 348.3602 78.0782" fill="none" stroke="#183923" stroke-width="0.6" stroke-dasharray="0.0665 0.3325"/><path d="M322.5145 75.5742 C322.8518 75.8425 323.2156 76.1796 323.4756 76.5485 C325.1895 78.9805 324.1307 80.3864 325.8699 82.8003 C325.9996 82.9801 326.1553 83.1511 326.3208 83.3093" fill="none" stroke="#183923" stroke-width="0.3325"/><path d="M328.7677 84.33 C329.7168 84.33 331.2291 84.33 332.3818 84.33" fill="none" stroke="#183923" stroke-width="0.6" stroke-dasharray="0.0665 0.3325"/><path d="M335.0194 83.8686 C335.9958 83.37 337.568 82.567 338.7312 81.9726" fill="none" stroke="#183923" stroke-width="0.6" stroke-dasharray="0.0665 0.3325"/><path d="M341.2725 81.204 C342.0113 81.204 343.0756 81.204 343.9581 81.204" fill="none" stroke="#183923" stroke-width="0.6" stroke-dasharray="0.0665 0.3325"/><path d="M322.5145 72.4482 C322.8518 72.7167 323.2156 73.0538 323.4756 73.4225 C325.1895 75.8545 324.1307 77.2604 325.8699 79.6743 C325.9996 79.8543 326.1553 80.0253 326.3208 80.1833" fill="none" stroke="#183923" stroke-width="0.3325"/><path d="M328.7677 81.204 C329.7168 81.204 331.2291 81.204 332.3818 81.204" fill="none" stroke="#183923" stroke-width="0.6" stroke-dasharray="0.0665 0.3325"/><path d="M335.0194 80.7429 C335.9958 80.2442 337.568 79.4411 338.7312 78.8468" fill="none" stroke="#183923" stroke-width="0.3325"/><path d="M328.7762 68.8338 C330.288 69.0651 333.4053 69.5855 335.979 70.2968 C336.9015 70.5517 337.9105 70.9106 338.7146 71.2166" fill="none" stroke="#183923" stroke-width="0.6" stroke-dasharray="0.0665 0.3325"/><path d="M341.2725 71.8265 C342.0113 71.8265 343.0756 71.8265 343.9581 71.8265" fill="none" stroke="#183923" stroke-width="0.6" stroke-dasharray="0.0665 0.3325"/><path d="M346.5918 71.8265 C347.1053 71.8265 347.7637 71.8265 348.3602 71.8265" fill="none" stroke="#183923" stroke-width="0.6" stroke-dasharray="0.0665 0.3325"/><path d="M328.7677 65.6042 C329.7168 65.6351 331.2291 65.6843 332.3818 65.722" fill="none" stroke="#183923" stroke-width="0.6" stroke-dasharray="0.0665 0.3325"/><path d="M335.0194 66.2059 C335.9872 66.6684 337.5387 67.4108 338.6985 67.9655" fill="none" stroke="#183923" stroke-width="0.6" stroke-dasharray="0.0665 0.3325"/><path d="M341.2725 68.7005 C342.0113 68.7005 343.0756 68.7005 343.9581 68.7005" fill="none" stroke="#183923" stroke-width="0.6" stroke-dasharray="0.0665 0.3325"/><path d="M346.5918 68.7005 C347.1053 68.7005 347.7637 68.7005 348.3602 68.7005" fill="none" stroke="#183923" stroke-width="0.6" stroke-dasharray="0.0665 0.3325"/><path d="M328.7677 71.8265 C329.7168 71.8265 331.2291 71.8265 332.3818 71.8265" fill="none" stroke="#183923" stroke-width="0.6" stroke-dasharray="0.0665 0.3325"/><path d="M335.0194 72.2876 C335.9958 72.7863 337.568 73.5894 338.7312 74.1838" fill="none" stroke="#183923" stroke-width="0.6" stroke-dasharray="0.0665 0.3325"/><path d="M341.2725 74.9523 C342.0113 74.9523 343.0756 74.9523 343.9581 74.9523" fill="none" stroke="#183923" stroke-width="0.6" stroke-dasharray="0.0665 0.3325"/><path d="M346.5918 74.9523 C347.1053 74.9523 347.7637 74.9523 348.3602 74.9523" fill="none" stroke="#183923" stroke-width="0.6" stroke-dasharray="0.0665 0.3325"/><path d="M341.2725 65.5748 C342.0113 65.5748 343.0756 65.5748 343.9581 65.5748" fill="none" stroke="#183923" stroke-width="0.6" stroke-dasharray="0.0665 0.3325"/><path d="M346.5918 65.5748 C347.1053 65.5748 347.7637 65.5748 348.3602 65.5748" fill="none" stroke="#183923" stroke-width="0.6" stroke-dasharray="0.0665 0.3325"/><path d="M341.2725 47.9501 C342.0113 47.9501 343.0756 47.9501 343.9581 47.9501" fill="none" stroke="#183923" stroke-width="0.6" stroke-dasharray="0.0665 0.3325"/><path d="M346.5918 47.9501 C347.1053 47.9501 347.7637 47.9501 348.3602 47.9501" fill="none" stroke="#183923" stroke-width="0.6" stroke-dasharray="0.0665 0.3325"/><path d="M341.2725 51.0759 C342.0113 51.0759 343.0756 51.0759 343.9581 51.0759" fill="none" stroke="#183923" stroke-width="0.6" stroke-dasharray="0.0665 0.3325"/><path d="M346.5918 51.0759 C347.1053 51.0759 347.7637 51.0759 348.3602 51.0759" fill="none" stroke="#183923" stroke-width="0.6" stroke-dasharray="0.0665 0.3325"/><path d="M341.2725 54.2019 C342.0113 54.2019 343.0756 54.2019 343.9581 54.2019" fill="none" stroke="#183923" stroke-width="0.6" stroke-dasharray="0.0665 0.3325"/><path d="M346.5918 54.2019 C347.1053 54.2019 347.7637 54.2019 348.3602 54.2019" fill="none" stroke="#183923" stroke-width="0.6" stroke-dasharray="0.0665 0.3325"/><path d="M341.2725 57.3277 C342.0113 57.3277 343.0756 57.3277 343.9581 57.3277" fill="none" stroke="#183923" stroke-width="0.6" stroke-dasharray="0.0665 0.3325"/><path d="M346.5918 57.3277 C347.1053 57.3277 347.7637 57.3277 348.3602 57.3277" fill="none" stroke="#183923" stroke-width="0.6" stroke-dasharray="0.0665 0.3325"/><rect x="283.07210000000003" y="14.1308" width="1.9286" height="1.9286" fill="none" stroke="#183923" stroke-width=".2"/><rect x="283.07210000000003" y="20.3825" width="1.9286" height="1.9286" fill="#ffffff" stroke="#183923" stroke-width=".2"/><rect x="289.3238" y="17.2567" width="1.9286" height="1.9286" fill="none" stroke="#183923" stroke-width=".2"/><rect x="283.07210000000003" y="53.2375" width="1.9286" height="1.9286" fill="none" stroke="#183923" stroke-width=".2"/><circle cx="284.0363" cy="61.4512" r="1.9287" fill="#9dcd9d" stroke="#ffffff" stroke-width=".4"/><rect x="283.07210000000003" y="64.61040000000001" width="1.9286" height="1.9286" fill="none" stroke="#183923" stroke-width=".2"/><rect x="283.07210000000003" y="67.73620000000001" width="1.9286" height="1.9286" fill="none" stroke="#183923" stroke-width=".2"/><rect x="283.07210000000003" y="70.86210000000001" width="1.9286" height="1.9286" fill="none" stroke="#183923" stroke-width=".2"/><rect x="289.3238" y="50.111599999999996" width="1.9286" height="1.9286" fill="#ffffff" stroke="#183923" stroke-width=".2"/><rect x="295.57550000000003" y="36.012" width="1.9286" height="1.9286" fill="#ffffff" stroke="#183923" stroke-width=".2"/><rect x="301.82730000000004" y="32.8861" width="1.9286" height="1.9286" fill="#ffffff" stroke="#183923" stroke-width=".2"/><rect x="308.079" y="22.9763" width="1.9288" height="1.9288" fill="none" stroke="#183923" stroke-width=".2"/><rect x="283.07210000000003" y="17.2567" width="1.9286" height="1.9286" fill="none" stroke="#183923" stroke-width=".2"/><circle cx="290.288" cy="61.4512" r="1.9287" fill="#9dcd9d" stroke="#000000" stroke-width=".4"/><rect x="289.3238" y="64.61040000000001" width="1.9286" height="1.9286" fill="none" stroke="#183923" stroke-width=".2"/><rect x="289.3238" y="56.3634" width="1.9286" height="1.9286" fill="none" stroke="#183923" stroke-width=".2"/><rect x="289.3238" y="53.2375" width="1.9286" height="1.9286" fill="none" stroke="#183923" stroke-width=".2"/><circle cx="296.5399" cy="65.5747" r="1.9287" fill="#9dcd9d" stroke="#ffffff" stroke-width=".4"/><rect x="295.57550000000003" y="68.7339" width="1.9286" height="1.9286" fill="none" stroke="#183923" stroke-width=".2"/><rect x="295.57550000000003" y="44.8575" width="1.9286" height="1.9286" fill="none" stroke="#183923" stroke-width=".2"/><rect x="295.57550000000003" y="47.983399999999996" width="1.9286" height="1.9286" fill="none" stroke="#183923" stroke-width=".2"/><rect x="295.57550000000003" y="54.2352" width="1.9286" height="1.9286" fill="none" stroke="#183923" stroke-width=".2"/><rect x="295.57550000000003" y="60.4869" width="1.9286" height="1.9286" fill="none" stroke="#183923" stroke-width=".2"/><rect x="295.57550000000003" y="57.361" width="1.9286" height="1.9286" fill="none" stroke="#183923" stroke-width=".2"/><rect x="295.57550000000003" y="51.1093" width="1.9286" height="1.9286" fill="none" stroke="#183923" stroke-width=".2"/><rect x="301.82730000000004" y="60.4869" width="1.9286" height="1.9286" fill="#ffffff" stroke="#183923" stroke-width=".2"/><circle cx="302.7917" cy="65.5747" r="1.9287" fill="#9dcd9d" stroke="#000000" stroke-width=".4"/><rect x="301.82730000000004" y="68.7339" width="1.9286" height="1.9286" fill="none" stroke="#183923" stroke-width=".2"/><rect x="301.82730000000004" y="71.8598" width="1.9286" height="1.9286" fill="#ffffff" stroke="#183923" stroke-width=".2"/><rect x="308.079" y="47.9833" width="1.9288" height="1.9288" fill="none" stroke="#183923" stroke-width=".2"/><rect x="314.3307" y="41.731500000000004" width="1.9288" height="1.9288" fill="none" stroke="#183923" stroke-width=".2"/><rect x="314.3307" y="38.6056" width="1.9288" height="1.9288" fill="none" stroke="#183923" stroke-width=".2"/><rect x="320.5825" y="34.4822" width="1.9288" height="1.9288" fill="none" stroke="#183923" stroke-width=".2"/><rect x="320.5825" y="37.608000000000004" width="1.9288" height="1.9288" fill="none" stroke="#183923" stroke-width=".2"/><rect x="326.8342" y="25.104599999999998" width="1.9288" height="1.9288" fill="#ffffff" stroke="#183923" stroke-width=".2"/><rect x="333.0859" y="21.9787" width="1.9288" height="1.9288" fill="none" stroke="#183923" stroke-width=".2"/><rect x="339.33790000000005" y="21.9788" width="1.9286" height="1.9286" fill="none" stroke="#183923" stroke-width=".2"/><rect x="339.33790000000005" y="18.8528" width="1.9286" height="1.9286" fill="none" stroke="#183923" stroke-width=".2"/><rect x="344.65840000000003" y="21.9788" width="1.9286" height="1.9286" fill="#ffffff" stroke="#183923" stroke-width=".2"/><rect x="349.04789999999997" y="21.9787" width="1.9288" height="1.9288" fill="none" stroke="#183923" stroke-width=".2"/><rect x="283.07210000000003" y="26.6343" width="1.9286" height="1.9286" fill="none" stroke="#183923" stroke-width=".2"/><rect x="289.3238" y="23.508399999999998" width="1.9286" height="1.9286" fill="none" stroke="#183923" stroke-width=".2"/><rect x="289.3238" y="26.6343" width="1.9286" height="1.9286" fill="none" stroke="#183923" stroke-width=".2"/><rect x="295.57550000000003" y="23.508399999999998" width="1.9286" height="1.9286" fill="none" stroke="#183923" stroke-width=".2"/><rect x="301.82730000000004" y="23.508399999999998" width="1.9286" height="1.9286" fill="none" stroke="#183923" stroke-width=".2"/><rect x="301.82730000000004" y="20.3825" width="1.9286" height="1.9286" fill="none" stroke="#183923" stroke-width=".2"/><rect x="308.079" y="13.598700000000001" width="1.9288" height="1.9288" fill="#ffffff" stroke="#183923" stroke-width=".2"/><rect x="314.3307" y="13.598700000000001" width="1.9288" height="1.9288" fill="#ffffff" stroke="#183923" stroke-width=".2"/><rect x="320.5825" y="13.598700000000001" width="1.9288" height="1.9288" fill="none" stroke="#183923" stroke-width=".2"/><rect x="283.07210000000003" y="83.3657" width="1.9286" height="1.9286" fill="#ffffff" stroke="#183923" stroke-width=".2"/><rect x="289.3238" y="93.74080000000001" width="1.9286" height="1.9286" fill="#ffffff" stroke="#183923" stroke-width=".2"/><rect x="295.57550000000003" y="95.3371" width="1.9286" height="1.9286" fill="#ffffff" stroke="#183923" stroke-width=".2"/><rect x="301.82730000000004" y="96.86670000000001" width="1.9286" height="1.9286" fill="none" stroke="#183923" stroke-width=".2"/><rect x="283.07210000000003" y="86.4915" width="1.9286" height="1.9286" fill="none" stroke="#183923" stroke-width=".2"/><rect x="283.07210000000003" y="90.5485" width="1.9286" height="1.9286" fill="#ffffff" stroke="#183923" stroke-width=".2"/><rect x="289.3238" y="96.86670000000001" width="1.9286" height="1.9286" fill="#ffffff" stroke="#183923" stroke-width=".2"/><rect x="295.57550000000003" y="98.46300000000001" width="1.9286" height="1.9286" fill="#ffffff" stroke="#183923" stroke-width=".2"/><rect x="301.82730000000004" y="99.9927" width="1.9286" height="1.9286" fill="#ffffff" stroke="#183923" stroke-width=".2"/><rect x="308.079" y="99.9926" width="1.9288" height="1.9288" fill="none" stroke="#183923" stroke-width=".2"/><rect x="283.07210000000003" y="95.4701" width="1.9286" height="1.9286" fill="#ffffff" stroke="#183923" stroke-width=".2"/><rect x="289.3238" y="99.9927" width="1.9286" height="1.9286" fill="#ffffff" stroke="#183923" stroke-width=".2"/><rect x="326.8342" y="28.2304" width="1.9288" height="1.9288" fill="none" stroke="#183923" stroke-width=".2"/><rect x="333.0859" y="28.2304" width="1.9288" height="1.9288" fill="none" stroke="#183923" stroke-width=".2"/><rect x="333.0859" y="25.104599999999998" width="1.9288" height="1.9288" fill="none" stroke="#183923" stroke-width=".2"/><rect x="339.33790000000005" y="28.2305" width="1.9286" height="1.9286" fill="none" stroke="#183923" stroke-width=".2"/><rect x="283.07210000000003" y="23.508399999999998" width="1.9286" height="1.9286" fill="#ffffff" stroke="#183923" stroke-width=".2"/><rect x="289.3238" y="20.3825" width="1.9286" height="1.9286" fill="#ffffff" stroke="#183923" stroke-width=".2"/><rect x="295.57550000000003" y="20.3825" width="1.9286" height="1.9286" fill="none" stroke="#183923" stroke-width=".2"/><rect x="283.07210000000003" y="31.489399999999996" width="1.9286" height="1.9286" fill="#ffffff" stroke="#183923" stroke-width=".2"/><rect x="289.3238" y="30.624799999999997" width="1.9286" height="1.9286" fill="#ffffff" stroke="#183923" stroke-width=".2"/><rect x="295.57550000000003" y="26.6343" width="1.9286" height="1.9286" fill="#ffffff" stroke="#183923" stroke-width=".2"/><rect x="301.82730000000004" y="26.6343" width="1.9286" height="1.9286" fill="#ffffff" stroke="#183923" stroke-width=".2"/><rect x="308.079" y="16.7246" width="1.9288" height="1.9288" fill="none" stroke="#183923" stroke-width=".2"/><rect x="289.3238" y="74.9856" width="1.9286" height="1.9286" fill="none" stroke="#183923" stroke-width=".2"/><rect x="295.57550000000003" y="74.9856" width="1.9286" height="1.9286" fill="none" stroke="#183923" stroke-width=".2"/><rect x="295.57550000000003" y="78.1115" width="1.9286" height="1.9286" fill="none" stroke="#183923" stroke-width=".2"/><rect x="301.82730000000004" y="81.23740000000001" width="1.9286" height="1.9286" fill="#ffffff" stroke="#183923" stroke-width=".2"/><rect x="308.079" y="82.0354" width="1.9288" height="1.9288" fill="#ffffff" stroke="#183923" stroke-width=".2"/><rect x="314.3307" y="92.3441" width="1.9288" height="1.9288" fill="#ffffff" stroke="#183923" stroke-width=".2"/><rect x="320.5825" y="96.002" width="1.9288" height="1.9288" fill="#ffffff" stroke="#183923" stroke-width=".2"/><rect x="283.07210000000003" y="80.2398" width="1.9286" height="1.9286" fill="#ffffff" stroke="#183923" stroke-width=".2"/><rect x="289.3238" y="90.61500000000001" width="1.9286" height="1.9286" fill="#ffffff" stroke="#183923" stroke-width=".2"/><rect x="295.57550000000003" y="90.61500000000001" width="1.9286" height="1.9286" fill="none" stroke="#183923" stroke-width=".2"/><rect x="283.07210000000003" y="73.988" width="1.9286" height="1.9286" fill="#ffffff" stroke="#183923" stroke-width=".2"/><rect x="289.3238" y="84.36330000000001" width="1.9286" height="1.9286" fill="#ffffff" stroke="#183923" stroke-width=".2"/><rect x="295.57550000000003" y="84.36330000000001" width="1.9286" height="1.9286" fill="#ffffff" stroke="#183923" stroke-width=".2"/><rect x="301.82730000000004" y="90.61500000000001" width="1.9286" height="1.9286" fill="#ffffff" stroke="#183923" stroke-width=".2"/><rect x="308.079" y="90.6149" width="1.9288" height="1.9288" fill="#ffffff" stroke="#183923" stroke-width=".2"/><rect x="283.07210000000003" y="77.1139" width="1.9286" height="1.9286" fill="#ffffff" stroke="#183923" stroke-width=".2"/><rect x="289.3238" y="87.48910000000001" width="1.9286" height="1.9286" fill="#ffffff" stroke="#183923" stroke-width=".2"/><rect x="295.57550000000003" y="87.48910000000001" width="1.9286" height="1.9286" fill="#ffffff" stroke="#183923" stroke-width=".2"/><rect x="301.82730000000004" y="93.74080000000001" width="1.9286" height="1.9286" fill="#ffffff" stroke="#183923" stroke-width=".2"/><rect x="308.079" y="93.7407" width="1.9288" height="1.9288" fill="none" stroke="#183923" stroke-width=".2"/><rect x="283.07210000000003" y="48.3159" width="1.9286" height="1.9286" fill="#ffffff" stroke="#183923" stroke-width=".2"/><rect x="289.3238" y="44.924" width="1.9286" height="1.9286" fill="#ffffff" stroke="#183923" stroke-width=".2"/><rect x="295.57550000000003" y="32.8861" width="1.9286" height="1.9286" fill="#ffffff" stroke="#183923" stroke-width=".2"/><rect x="301.82730000000004" y="29.760199999999998" width="1.9286" height="1.9286" fill="#ffffff" stroke="#183923" stroke-width=".2"/><rect x="308.079" y="19.8504" width="1.9288" height="1.9288" fill="#ffffff" stroke="#183923" stroke-width=".2"/><rect x="314.3307" y="19.318299999999997" width="1.9288" height="1.9288" fill="#ffffff" stroke="#183923" stroke-width=".2"/><rect x="320.5825" y="18.8527" width="1.9288" height="1.9288" fill="none" stroke="#183923" stroke-width=".2"/><rect x="339.33790000000005" y="25.104699999999998" width="1.9286" height="1.9286" fill="#ffffff" stroke="#183923" stroke-width=".2"/><rect x="344.65840000000003" y="25.104699999999998" width="1.9286" height="1.9286" fill="none" stroke="#183923" stroke-width=".2"/><rect x="349.04789999999997" y="25.104599999999998" width="1.9288" height="1.9288" fill="none" stroke="#183923" stroke-width=".2"/><rect x="349.04789999999997" y="28.2304" width="1.9288" height="1.9288" fill="none" stroke="#183923" stroke-width=".2"/><rect x="308.079" y="10.4727" width="1.9288" height="1.9288" fill="#ffffff" stroke="#183923" stroke-width=".2"/><rect x="314.3307" y="10.4727" width="1.9288" height="1.9288" fill="#ffffff" stroke="#183923" stroke-width=".2"/><rect x="320.5825" y="10.4727" width="1.9288" height="1.9288" fill="#ffffff" stroke="#183923" stroke-width=".2"/><rect x="326.8342" y="10.4727" width="1.9288" height="1.9288" fill="none" stroke="#183923" stroke-width=".2"/><rect x="283.07210000000003" y="38.1402" width="1.9286" height="1.9286" fill="#ffffff" stroke="#183923" stroke-width=".2"/><rect x="289.3238" y="36.3444" width="1.9286" height="1.9286" fill="#ffffff" stroke="#183923" stroke-width=".2"/><rect x="295.57550000000003" y="29.760199999999998" width="1.9286" height="1.9286" fill="none" stroke="#183923" stroke-width=".2"/><rect x="289.3238" y="78.1115" width="1.9286" height="1.9286" fill="#ffffff" stroke="#183923" stroke-width=".2"/><rect x="295.57550000000003" y="81.23740000000001" width="1.9286" height="1.9286" fill="#ffffff" stroke="#183923" stroke-width=".2"/><rect x="301.82730000000004" y="87.48910000000001" width="1.9286" height="1.9286" fill="none" stroke="#183923" stroke-width=".2"/><rect x="301.82730000000004" y="84.36330000000001" width="1.9286" height="1.9286" fill="#ffffff" stroke="#183923" stroke-width=".2"/><rect x="308.079" y="86.6909" width="1.9288" height="1.9288" fill="#ffffff" stroke="#183923" stroke-width=".2"/><rect x="289.3238" y="81.23740000000001" width="1.9286" height="1.9286" fill="none" stroke="#183923" stroke-width=".2"/><rect x="295.57550000000003" y="71.8598" width="1.9286" height="1.9286" fill="#ffffff" stroke="#183923" stroke-width=".2"/><rect x="301.82730000000004" y="78.1115" width="1.9286" height="1.9286" fill="none" stroke="#183923" stroke-width=".2"/><rect x="308.079" y="32.3539" width="1.9288" height="1.9288" fill="none" stroke="#183923" stroke-width=".2"/><rect x="314.3307" y="29.227999999999998" width="1.9288" height="1.9288" fill="none" stroke="#183923" stroke-width=".2"/><rect x="314.3307" y="32.3539" width="1.9288" height="1.9288" fill="none" stroke="#183923" stroke-width=".2"/><rect x="320.5825" y="21.9787" width="1.9288" height="1.9288" fill="#ffffff" stroke="#183923" stroke-width=".2"/><rect x="326.8342" y="15.726899999999999" width="1.9288" height="1.9288" fill="#ffffff" stroke="#183923" stroke-width=".2"/><rect x="333.0859" y="15.726899999999999" width="1.9288" height="1.9288" fill="#ffffff" stroke="#183923" stroke-width=".2"/><rect x="339.33790000000005" y="15.726999999999999" width="1.9286" height="1.9286" fill="#ffffff" stroke="#183923" stroke-width=".2"/><rect x="344.65840000000003" y="15.726999999999999" width="1.9286" height="1.9286" fill="none" stroke="#183923" stroke-width=".2"/><rect x="295.57550000000003" y="39.1378" width="1.9286" height="1.9286" fill="#ffffff" stroke="#183923" stroke-width=".2"/><rect x="301.82730000000004" y="36.012" width="1.9286" height="1.9286" fill="#ffffff" stroke="#183923" stroke-width=".2"/><rect x="308.079" y="26.1022" width="1.9288" height="1.9288" fill="none" stroke="#183923" stroke-width=".2"/><rect x="320.5825" y="31.3563" width="1.9288" height="1.9288" fill="#ffffff" stroke="#183923" stroke-width=".2"/><rect x="301.82730000000004" y="74.9856" width="1.9286" height="1.9286" fill="#ffffff" stroke="#183923" stroke-width=".2"/><rect x="308.079" y="78.1114" width="1.9288" height="1.9288" fill="#ffffff" stroke="#183923" stroke-width=".2"/><rect x="314.3307" y="78.1114" width="1.9288" height="1.9288" fill="none" stroke="#183923" stroke-width=".2"/><rect x="301.82730000000004" y="41.7316" width="1.9286" height="1.9286" fill="#ffffff" stroke="#183923" stroke-width=".2"/><rect x="308.079" y="29.227999999999998" width="1.9288" height="1.9288" fill="#ffffff" stroke="#183923" stroke-width=".2"/><rect x="314.3307" y="26.1022" width="1.9288" height="1.9288" fill="none" stroke="#183923" stroke-width=".2"/><rect x="301.82730000000004" y="44.8575" width="1.9286" height="1.9286" fill="#ffffff" stroke="#183923" stroke-width=".2"/><rect x="320.5825" y="25.104599999999998" width="1.9288" height="1.9288" fill="#ffffff" stroke="#183923" stroke-width=".2"/><rect x="326.8342" y="18.985799999999998" width="1.9288" height="1.9288" fill="#ffffff" stroke="#183923" stroke-width=".2"/><rect x="333.0859" y="18.8527" width="1.9288" height="1.9288" fill="none" stroke="#183923" stroke-width=".2"/><rect x="301.82730000000004" y="51.1093" width="1.9286" height="1.9286" fill="#ffffff" stroke="#183923" stroke-width=".2"/><rect x="308.079" y="38.6056" width="1.9288" height="1.9288" fill="#ffffff" stroke="#183923" stroke-width=".2"/><rect x="314.3307" y="35.479800000000004" width="1.9288" height="1.9288" fill="#ffffff" stroke="#183923" stroke-width=".2"/><rect x="320.5825" y="28.2304" width="1.9288" height="1.9288" fill="none" stroke="#183923" stroke-width=".2"/><rect x="301.82730000000004" y="57.361" width="1.9286" height="1.9286" fill="#ffffff" stroke="#183923" stroke-width=".2"/><rect x="308.079" y="44.857400000000005" width="1.9288" height="1.9288" fill="none" stroke="#183923" stroke-width=".2"/><rect x="301.82730000000004" y="54.2352" width="1.9286" height="1.9286" fill="#ffffff" stroke="#183923" stroke-width=".2"/><rect x="308.079" y="41.731500000000004" width="1.9288" height="1.9288" fill="none" stroke="#183923" stroke-width=".2"/><rect x="301.82730000000004" y="47.983399999999996" width="1.9286" height="1.9286" fill="#ffffff" stroke="#183923" stroke-width=".2"/><rect x="308.079" y="35.479800000000004" width="1.9288" height="1.9288" fill="none" stroke="#183923" stroke-width=".2"/><rect x="344.65840000000003" y="18.8528" width="1.9286" height="1.9286" fill="#ffffff" stroke="#183923" stroke-width=".2"/><rect x="349.04789999999997" y="18.8527" width="1.9288" height="1.9288" fill="#ffffff" stroke="#183923" stroke-width=".2"/><rect x="308.079" y="54.2351" width="1.9288" height="1.9288" fill="none" stroke="#183923" stroke-width=".2"/><rect x="308.079" y="57.3609" width="1.9288" height="1.9288" fill="none" stroke="#183923" stroke-width=".2"/><rect x="308.079" y="60.4868" width="1.9288" height="1.9288" fill="none" stroke="#183923" stroke-width=".2"/><circle cx="309.0434" cy="65.5747" r="1.9287" fill="#9dcd9d" stroke="#ffffff" stroke-width=".4"/><rect x="308.079" y="68.7338" width="1.9288" height="1.9288" fill="none" stroke="#183923" stroke-width=".2"/><rect x="314.3307" y="44.857400000000005" width="1.9288" height="1.9288" fill="#ffffff" stroke="#183923" stroke-width=".2"/><rect x="320.5825" y="40.733900000000006" width="1.9288" height="1.9288" fill="none" stroke="#183923" stroke-width=".2"/><rect x="326.8342" y="35.0142" width="1.9288" height="1.9288" fill="none" stroke="#183923" stroke-width=".2"/><rect x="326.8342" y="38.140100000000004" width="1.9288" height="1.9288" fill="none" stroke="#183923" stroke-width=".2"/><rect x="333.0859" y="32.2209" width="1.9288" height="1.9288" fill="#ffffff" stroke="#183923" stroke-width=".2"/><rect x="339.33790000000005" y="31.3564" width="1.9286" height="1.9286" fill="none" stroke="#183923" stroke-width=".2"/><rect x="308.079" y="71.8597" width="1.9288" height="1.9288" fill="#ffffff" stroke="#183923" stroke-width=".2"/><rect x="314.3307" y="71.8597" width="1.9288" height="1.9288" fill="#ffffff" stroke="#183923" stroke-width=".2"/><rect x="320.5825" y="86.95700000000001" width="1.9288" height="1.9288" fill="#ffffff" stroke="#183923" stroke-width=".2"/><rect x="326.8342" y="95.869" width="1.9288" height="1.9288" fill="#ffffff" stroke="#183923" stroke-width=".2"/><rect x="333.0859" y="95.869" width="1.9288" height="1.9288" fill="#ffffff" stroke="#183923" stroke-width=".2"/><rect x="339.33790000000005" y="95.8691" width="1.9286" height="1.9286" fill="#ffffff" stroke="#183923" stroke-width=".2"/><rect x="344.65840000000003" y="95.8691" width="1.9286" height="1.9286" fill="none" stroke="#183923" stroke-width=".2"/><rect x="308.079" y="74.9855" width="1.9288" height="1.9288" fill="#ffffff" stroke="#183923" stroke-width=".2"/><rect x="314.3307" y="74.9855" width="1.9288" height="1.9288" fill="#ffffff" stroke="#183923" stroke-width=".2"/><rect x="320.5825" y="91.014" width="1.9288" height="1.9288" fill="#ffffff" stroke="#183923" stroke-width=".2"/><rect x="326.8342" y="98.9949" width="1.9288" height="1.9288" fill="#ffffff" stroke="#183923" stroke-width=".2"/><rect x="333.0859" y="98.9949" width="1.9288" height="1.9288" fill="#ffffff" stroke="#183923" stroke-width=".2"/><rect x="339.33790000000005" y="98.995" width="1.9286" height="1.9286" fill="none" stroke="#183923" stroke-width=".2"/><rect x="333.0859" y="37.0095" width="1.9288" height="1.9288" fill="#ffffff" stroke="#183923" stroke-width=".2"/><rect x="339.33790000000005" y="34.482299999999995" width="1.9286" height="1.9286" fill="#ffffff" stroke="#183923" stroke-width=".2"/><rect x="344.65840000000003" y="34.482299999999995" width="1.9286" height="1.9286" fill="#ffffff" stroke="#183923" stroke-width=".2"/><rect x="349.04789999999997" y="34.4822" width="1.9288" height="1.9288" fill="none" stroke="#183923" stroke-width=".2"/><rect x="314.3307" y="47.9833" width="1.9288" height="1.9288" fill="#ffffff" stroke="#183923" stroke-width=".2"/><rect x="320.5825" y="43.8598" width="1.9288" height="1.9288" fill="#ffffff" stroke="#183923" stroke-width=".2"/><rect x="326.8342" y="41.2659" width="1.9288" height="1.9288" fill="#ffffff" stroke="#183923" stroke-width=".2"/><rect x="333.0859" y="40.999900000000004" width="1.9288" height="1.9288" fill="none" stroke="#183923" stroke-width=".2"/><rect x="314.3307" y="51.1092" width="1.9288" height="1.9288" fill="#ffffff" stroke="#183923" stroke-width=".2"/><rect x="320.5825" y="46.985600000000005" width="1.9288" height="1.9288" fill="#ffffff" stroke="#183923" stroke-width=".2"/><rect x="326.8342" y="44.3919" width="1.9288" height="1.9288" fill="#ffffff" stroke="#183923" stroke-width=".2"/><rect x="333.0859" y="44.125800000000005" width="1.9288" height="1.9288" fill="#ffffff" stroke="#183923" stroke-width=".2"/><rect x="339.33790000000005" y="37.6081" width="1.9286" height="1.9286" fill="#ffffff" stroke="#183923" stroke-width=".2"/><rect x="344.65840000000003" y="37.6081" width="1.9286" height="1.9286" fill="none" stroke="#183923" stroke-width=".2"/><rect x="314.3307" y="60.4868" width="1.9288" height="1.9288" fill="#ffffff" stroke="#183923" stroke-width=".2"/><circle cx="315.2951" cy="65.5747" r="1.9287" fill="#9dcd9d" stroke="#000000" stroke-width=".4"/><rect x="314.3307" y="54.2351" width="1.9288" height="1.9288" fill="none" stroke="#183923" stroke-width=".2"/><rect x="314.3307" y="57.3609" width="1.9288" height="1.9288" fill="#ffffff" stroke="#183923" stroke-width=".2"/><rect x="320.5825" y="56.3633" width="1.9288" height="1.9288" fill="#ffffff" stroke="#183923" stroke-width=".2"/><rect x="326.8342" y="56.3633" width="1.9288" height="1.9288" fill="#ffffff" stroke="#183923" stroke-width=".2"/><rect x="333.0859" y="54.9666" width="1.9288" height="1.9288" fill="#ffffff" stroke="#183923" stroke-width=".2"/><rect x="339.33790000000005" y="43.859899999999996" width="1.9286" height="1.9286" fill="#ffffff" stroke="#183923" stroke-width=".2"/><rect x="344.65840000000003" y="43.859899999999996" width="1.9286" height="1.9286" fill="#ffffff" stroke="#183923" stroke-width=".2"/><rect x="349.04789999999997" y="43.8598" width="1.9288" height="1.9288" fill="#ffffff" stroke="#183923" stroke-width=".2"/><rect x="314.3307" y="68.7338" width="1.9288" height="1.9288" fill="none" stroke="#183923" stroke-width=".2"/><rect x="320.5825" y="77.1138" width="1.9288" height="1.9288" fill="none" stroke="#183923" stroke-width=".2"/><rect x="320.5825" y="80.2397" width="1.9288" height="1.9288" fill="none" stroke="#183923" stroke-width=".2"/><rect x="320.5825" y="83.3656" width="1.9288" height="1.9288" fill="none" stroke="#183923" stroke-width=".2"/><circle cx="321.5469" cy="61.4512" r="1.9287" fill="#9dcd9d" stroke="#ffffff" stroke-width=".4"/><rect x="320.5825" y="64.61030000000001" width="1.9288" height="1.9288" fill="none" stroke="#183923" stroke-width=".2"/><rect x="320.5825" y="67.73610000000001" width="1.9288" height="1.9288" fill="none" stroke="#183923" stroke-width=".2"/><rect x="320.5825" y="73.9879" width="1.9288" height="1.9288" fill="none" stroke="#183923" stroke-width=".2"/><rect x="320.5825" y="70.86200000000001" width="1.9288" height="1.9288" fill="none" stroke="#183923" stroke-width=".2"/><rect x="326.8342" y="86.4914" width="1.9288" height="1.9288" fill="#ffffff" stroke="#183923" stroke-width=".2"/><rect x="333.0859" y="86.4914" width="1.9288" height="1.9288" fill="#ffffff" stroke="#183923" stroke-width=".2"/><rect x="339.33790000000005" y="83.3657" width="1.9286" height="1.9286" fill="none" stroke="#183923" stroke-width=".2"/><rect x="339.33790000000005" y="86.4915" width="1.9286" height="1.9286" fill="none" stroke="#183923" stroke-width=".2"/><rect x="344.65840000000003" y="83.3657" width="1.9286" height="1.9286" fill="#ffffff" stroke="#183923" stroke-width=".2"/><rect x="349.04789999999997" y="83.3656" width="1.9288" height="1.9288" fill="none" stroke="#183923" stroke-width=".2"/><rect x="320.5825" y="50.1115" width="1.9288" height="1.9288" fill="#ffffff" stroke="#183923" stroke-width=".2"/><rect x="326.8342" y="47.5178" width="1.9288" height="1.9288" fill="#ffffff" stroke="#183923" stroke-width=".2"/><rect x="333.0859" y="47.2516" width="1.9288" height="1.9288" fill="#ffffff" stroke="#183923" stroke-width=".2"/><rect x="339.33790000000005" y="40.734" width="1.9286" height="1.9286" fill="none" stroke="#183923" stroke-width=".2"/><rect x="320.5825" y="53.2374" width="1.9288" height="1.9288" fill="none" stroke="#183923" stroke-width=".2"/><rect x="326.8342" y="53.2374" width="1.9288" height="1.9288" fill="#ffffff" stroke="#183923" stroke-width=".2"/><rect x="333.0859" y="50.3776" width="1.9288" height="1.9288" fill="#ffffff" stroke="#183923" stroke-width=".2"/><rect x="344.65840000000003" y="86.4915" width="1.9286" height="1.9286" fill="#ffffff" stroke="#183923" stroke-width=".2"/><rect x="349.04789999999997" y="86.4914" width="1.9288" height="1.9288" fill="#ffffff" stroke="#183923" stroke-width=".2"/><rect x="326.8342" y="89.6173" width="1.9288" height="1.9288" fill="#ffffff" stroke="#183923" stroke-width=".2"/><rect x="333.0859" y="89.6173" width="1.9288" height="1.9288" fill="#ffffff" stroke="#183923" stroke-width=".2"/><rect x="339.33790000000005" y="89.6174" width="1.9286" height="1.9286" fill="none" stroke="#183923" stroke-width=".2"/><rect x="326.8342" y="92.7432" width="1.9288" height="1.9288" fill="#ffffff" stroke="#183923" stroke-width=".2"/><rect x="333.0859" y="92.7432" width="1.9288" height="1.9288" fill="#ffffff" stroke="#183923" stroke-width=".2"/><rect x="339.33790000000005" y="92.7433" width="1.9286" height="1.9286" fill="#ffffff" stroke="#183923" stroke-width=".2"/><rect x="344.65840000000003" y="92.7433" width="1.9286" height="1.9286" fill="none" stroke="#183923" stroke-width=".2"/><circle cx="327.7986" cy="61.4512" r="1.9287" fill="#9dcd9d" stroke="#000000" stroke-width=".4"/><rect x="326.8342" y="67.73610000000001" width="1.9288" height="1.9288" fill="none" stroke="#183923" stroke-width=".2"/><rect x="326.8342" y="64.61030000000001" width="1.9288" height="1.9288" fill="#ffffff" stroke="#183923" stroke-width=".2"/><rect x="326.8342" y="70.86200000000001" width="1.9288" height="1.9288" fill="none" stroke="#183923" stroke-width=".2"/><circle cx="334.0503" cy="61.4512" r="1.9287" fill="#9dcd9d" stroke="#ffffff" stroke-width=".4"/><circle cx="340.3021" cy="61.4512" r="1.9287" fill="#9dcd9d" stroke="#000000" stroke-width=".4"/><rect x="339.33790000000005" y="70.86210000000001" width="1.9286" height="1.9286" fill="none" stroke="#183923" stroke-width=".2"/><rect x="339.33790000000005" y="64.61040000000001" width="1.9286" height="1.9286" fill="#ffffff" stroke="#183923" stroke-width=".2"/><rect x="339.33790000000005" y="46.9857" width="1.9286" height="1.9286" fill="#ffffff" stroke="#183923" stroke-width=".2"/><rect x="339.33790000000005" y="50.111599999999996" width="1.9286" height="1.9286" fill="#ffffff" stroke="#183923" stroke-width=".2"/><rect x="339.33790000000005" y="53.2375" width="1.9286" height="1.9286" fill="none" stroke="#183923" stroke-width=".2"/><rect x="339.33790000000005" y="56.3634" width="1.9286" height="1.9286" fill="none" stroke="#183923" stroke-width=".2"/><rect x="344.65840000000003" y="60.4869" width="1.9286" height="1.9286" fill="none" stroke="#183923" stroke-width=".2"/><rect x="349.04789999999997" y="60.4868" width="1.9288" height="1.9288" fill="#ffffff" stroke="#183923" stroke-width=".2"/><rect x="326.8342" y="73.9879" width="1.9288" height="1.9288" fill="#ffffff" stroke="#183923" stroke-width=".2"/><rect x="333.0859" y="73.9879" width="1.9288" height="1.9288" fill="none" stroke="#183923" stroke-width=".2"/><rect x="326.8342" y="77.1138" width="1.9288" height="1.9288" fill="#ffffff" stroke="#183923" stroke-width=".2"/><rect x="333.0859" y="77.1138" width="1.9288" height="1.9288" fill="#ffffff" stroke="#183923" stroke-width=".2"/><rect x="339.33790000000005" y="77.1139" width="1.9286" height="1.9286" fill="none" stroke="#183923" stroke-width=".2"/><rect x="344.65840000000003" y="77.1139" width="1.9286" height="1.9286" fill="#ffffff" stroke="#183923" stroke-width=".2"/><rect x="349.04789999999997" y="77.1138" width="1.9288" height="1.9288" fill="none" stroke="#183923" stroke-width=".2"/><rect x="326.8342" y="83.3656" width="1.9288" height="1.9288" fill="#ffffff" stroke="#183923" stroke-width=".2"/><rect x="333.0859" y="83.3656" width="1.9288" height="1.9288" fill="#ffffff" stroke="#183923" stroke-width=".2"/><rect x="339.33790000000005" y="80.2398" width="1.9286" height="1.9286" fill="#ffffff" stroke="#183923" stroke-width=".2"/><rect x="344.65840000000003" y="80.2398" width="1.9286" height="1.9286" fill="none" stroke="#183923" stroke-width=".2"/><rect x="326.8342" y="80.2397" width="1.9288" height="1.9288" fill="#ffffff" stroke="#183923" stroke-width=".2"/><rect x="333.0859" y="80.2397" width="1.9288" height="1.9288" fill="#ffffff" stroke="#183923" stroke-width=".2"/><rect x="344.65840000000003" y="70.86210000000001" width="1.9286" height="1.9286" fill="#ffffff" stroke="#183923" stroke-width=".2"/><rect x="349.04789999999997" y="70.86200000000001" width="1.9288" height="1.9288" fill="#ffffff" stroke="#183923" stroke-width=".2"/><rect x="333.0859" y="64.8098" width="1.9288" height="1.9288" fill="#ffffff" stroke="#183923" stroke-width=".2"/><rect x="339.33790000000005" y="67.73620000000001" width="1.9286" height="1.9286" fill="#ffffff" stroke="#183923" stroke-width=".2"/><rect x="344.65840000000003" y="67.73620000000001" width="1.9286" height="1.9286" fill="#ffffff" stroke="#183923" stroke-width=".2"/><rect x="349.04789999999997" y="67.73610000000001" width="1.9288" height="1.9288" fill="#ffffff" stroke="#183923" stroke-width=".2"/><rect x="333.0859" y="70.86200000000001" width="1.9288" height="1.9288" fill="#ffffff" stroke="#183923" stroke-width=".2"/><rect x="339.33790000000005" y="73.988" width="1.9286" height="1.9286" fill="#ffffff" stroke="#183923" stroke-width=".2"/><rect x="344.65840000000003" y="73.988" width="1.9286" height="1.9286" fill="#ffffff" stroke="#183923" stroke-width=".2"/><rect x="349.04789999999997" y="73.9879" width="1.9288" height="1.9288" fill="none" stroke="#183923" stroke-width=".2"/><rect x="344.65840000000003" y="64.61040000000001" width="1.9286" height="1.9286" fill="#ffffff" stroke="#183923" stroke-width=".2"/><rect x="349.04789999999997" y="64.61030000000001" width="1.9288" height="1.9288" fill="#ffffff" stroke="#183923" stroke-width=".2"/><rect x="344.65840000000003" y="46.9857" width="1.9286" height="1.9286" fill="#ffffff" stroke="#183923" stroke-width=".2"/><rect x="349.04789999999997" y="46.985600000000005" width="1.9288" height="1.9288" fill="#ffffff" stroke="#183923" stroke-width=".2"/><rect x="344.65840000000003" y="50.111599999999996" width="1.9286" height="1.9286" fill="#ffffff" stroke="#183923" stroke-width=".2"/><rect x="349.04789999999997" y="50.1115" width="1.9288" height="1.9288" fill="#ffffff" stroke="#183923" stroke-width=".2"/><rect x="344.65840000000003" y="53.2375" width="1.9286" height="1.9286" fill="#ffffff" stroke="#183923" stroke-width=".2"/><rect x="349.04789999999997" y="53.2374" width="1.9288" height="1.9288" fill="#ffffff" stroke="#183923" stroke-width=".2"/><rect x="344.65840000000003" y="56.3634" width="1.9286" height="1.9286" fill="#ffffff" stroke="#183923" stroke-width=".2"/><rect x="349.04789999999997" y="56.3633" width="1.9288" height="1.9288" fill="#ffffff" stroke="#183923" stroke-width=".2"/></svg>
</svg>
